<?xml version="1.0" encoding="utf-8"?>
<!-- Generator: Adobe Illustrator 16.0.0, SVG Export Plug-In . SVG Version: 6.00 Build 0)  -->
<svg version="1.2" baseProfile="tiny" id="Layer_1" xmlns="http://www.w3.org/2000/svg" xmlns:xlink="http://www.w3.org/1999/xlink"
	 x="0px" y="0px" width="219.117px" height="39.882px" viewBox="0 0 219.117 39.882" xml:space="preserve">
<g>
	<path fill="#FFFFFF" d="M66.587,19.171c0.944-1.255,1.415-2.812,1.415-4.675c0-1.375-0.266-2.51-0.798-3.409
		c-0.522-0.893-1.26-1.636-2.193-2.224c-0.839-0.522-1.777-0.884-2.822-1.087c-1.039-0.201-2.344-0.304-3.91-0.304H51.03v25.818
		h3.444V23.026h4.833l8.659,10.265h4.458l-9.719-11.286C64.353,21.37,65.643,20.424,66.587,19.171z M57.968,20.135h-3.494v-9.71
		h4.066c0.929,0,1.736,0.065,2.419,0.201c0.692,0.13,1.285,0.363,1.782,0.697c0.602,0.392,1.039,0.871,1.3,1.446
		c0.262,0.567,0.392,1.225,0.392,1.958c0,0.969-0.125,1.767-0.376,2.395c-0.246,0.628-0.638,1.186-1.16,1.667
		c-0.567,0.522-1.26,0.873-2.073,1.064C60.01,20.039,59.057,20.135,57.968,20.135z"/>
	<polyline fill="#FFFFFF" points="80.717,20.692 80.717,33.291 97.745,33.291 97.745,30.215 84.156,30.215 84.156,20.692 
		88.558,20.692 94.792,20.692 94.792,17.614 88.558,17.614 84.156,17.614 84.156,10.548 97.745,10.548 97.745,7.473 80.717,7.473 
		80.717,17.614 	"/>
	<path fill="#FFFFFF" d="M124.389,9.521c-1.023-0.638-2.283-1.136-3.769-1.502c-1.486-0.366-3.49-0.547-6.015-0.547h-6.45v25.818
		h6.525c2.364,0,4.277-0.16,5.728-0.484c1.451-0.323,2.767-0.851,3.946-1.576c1.701-1.057,3.066-2.532,4.091-4.439
		c1.024-1.908,1.531-4.031,1.531-6.381c0-2.507-0.492-4.676-1.472-6.501C127.516,12.079,126.156,10.62,124.389,9.521z
		 M125.443,25.386c-0.638,1.34-1.602,2.419-2.886,3.24c-1.035,0.66-2.17,1.112-3.394,1.353c-1.24,0.241-2.681,0.363-4.338,0.363
		h-3.228V10.425h3.228c1.597,0,2.972,0.113,4.122,0.339c1.144,0.224,2.229,0.625,3.242,1.202c1.4,0.799,2.455,1.888,3.163,3.279
		c0.707,1.385,1.059,3.093,1.059,5.115C126.412,22.368,126.091,24.045,125.443,25.386z"/>
	<polygon fill="#FFFFFF" points="185.158,28.558 173.994,7.473 168.679,7.473 168.679,33.291 171.877,33.291 171.877,10.199 
		184.114,33.291 188.352,33.291 188.352,7.473 185.158,7.473 	"/>
	<polygon fill="#FFFFFF" points="197.231,7.473 197.231,10.548 206.452,10.548 206.452,33.291 209.896,33.291 209.896,10.548 
		219.117,10.548 219.117,7.473 	"/>
	<polygon fill="#FFFFFF" points="156.521,27.037 147.104,1.212 147.078,1.212 144.8,7.473 144.779,7.473 135.367,33.291 
		138.831,33.291 141.035,27.037 141.14,26.73 141.371,26.104 141.472,25.84 142.34,23.397 142.425,23.151 146.973,10.455 
		151.511,23.151 155.115,33.291 158.784,33.291 156.561,27.128 	"/>
	<line fill="#FFFFFF" x1="151.511" y1="23.151" x2="146.973" y2="10.455"/>
</g>
<g>
	<path fill="#FFFFFF" d="M37.184,19.942c0,9.508-7.736,17.243-17.244,17.243S2.696,29.45,2.696,19.942
		c0-9.51,7.736-17.246,17.244-17.246S37.184,10.433,37.184,19.942z M19.94,0C8.945,0,0,8.946,0,19.942
		c0,10.995,8.945,19.939,19.94,19.939s19.94-8.944,19.94-19.939C39.88,8.946,30.935,0,19.94,0z"/>
</g>
<g>
	<g>
		<g>
			<path fill="#FFFFFF" d="M20.725,18.8c0.022,0.081-0.368-0.01-0.182-0.061l0,0c0.187-0.052,0.873-0.049,0.852-0.127l-3.766-5.856
				c-0.02-0.077-0.188-0.1-0.373-0.047l0,0c-0.183,0.047-0.32,0.153-0.293,0.238L20.725,18.8z"/>
			<path fill="#FFFFFF" d="M17.66,13.001c0.042-0.072-0.052-0.21-0.216-0.313l0,0c-0.163-0.099-0.332-0.122-0.375-0.051
				l-2.707,4.377c-0.043,0.068,0.053,0.208,0.217,0.31l0,0c0.164,0.101,0.332,0.123,0.375,0.054L17.66,13.001z"/>
			<path fill="#FFFFFF" d="M17.649,13.281c-0.168,0.206-0.471,0.24-0.682,0.076c-0.207-0.168-0.242-0.468-0.077-0.679
				c0.167-0.207,0.47-0.243,0.679-0.074C17.781,12.768,17.815,13.072,17.649,13.281z"/>
			<polygon fill="#FFFFFF" points="13.133,20.426 12.68,20.22 14.337,17.329 14.792,17.537 			"/>
			<polygon fill="#FFFFFF" points="11.872,22.399 11.663,22.304 12.691,20.462 12.901,20.558 			"/>
			<path fill="#FFFFFF" d="M13.112,20.585c-0.101,0.16-0.312,0.21-0.476,0.111c-0.165-0.102-0.213-0.314-0.113-0.471
				c0.101-0.166,0.313-0.219,0.479-0.115C13.161,20.21,13.212,20.421,13.112,20.585z"/>
			<path fill="#FFFFFF" d="M15.056,17.327c-0.116,0.18-0.35,0.234-0.53,0.127c-0.183-0.117-0.244-0.354-0.128-0.533
				c0.112-0.18,0.348-0.238,0.532-0.125C15.111,16.907,15.167,17.146,15.056,17.327z"/>
		</g>
		<path fill="#FFFFFF" d="M18.617,15.881c0,0-3.832-0.557-5.014,2.501c-1.186,3.061,0.487,6.19,0.764,6.538
			c0.28,0.348,2.229,0.279,3.416-0.693c1.182-0.975,2.298-2.644,2.368-3.268C20.218,20.334,22.378,17.202,18.617,15.881z"/>
		<g>
			<path fill="#FFFFFF" d="M18.44,19.565c0.055,0.089,0.269,0.057,0.475-0.063l0,0c0.209-0.123,0.332-0.296,0.275-0.383l-6.946-5.08
				c-0.055-0.087-0.266-0.057-0.474,0.065l0,0c-0.207,0.124-0.329,0.295-0.271,0.381L18.44,19.565z"/>
			<path fill="#FFFFFF" d="M12.372,14.235c0.053-0.09-0.082-0.254-0.291-0.371l0,0c-0.211-0.113-0.428-0.135-0.48-0.046
				l-3.157,5.475c-0.055,0.089,0.079,0.255,0.29,0.369l0,0c0.212,0.114,0.426,0.137,0.478,0.05L12.372,14.235z"/>
			<path fill="#FFFFFF" d="M12.453,14.646c-0.13,0.303-0.488,0.446-0.803,0.32c-0.311-0.125-0.46-0.469-0.328-0.771
				c0.129-0.302,0.487-0.442,0.802-0.319C12.434,14.006,12.582,14.348,12.453,14.646z"/>
			<polygon fill="#FFFFFF" points="7.41,23.646 6.804,23.462 8.434,19.708 9.034,19.889 			"/>
			<polygon fill="#FFFFFF" points="6.46,26.201 6.121,26.152 6.793,23.619 7.135,23.67 			"/>
			<path fill="#FFFFFF" d="M7.328,23.803c-0.082,0.171-0.289,0.24-0.465,0.166c-0.178-0.078-0.251-0.279-0.176-0.445
				c0.082-0.173,0.29-0.245,0.466-0.168C7.331,23.432,7.408,23.632,7.328,23.803z"/>
			<path fill="#FFFFFF" d="M9.338,19.642c-0.131,0.229-0.429,0.311-0.666,0.183c-0.238-0.132-0.325-0.419-0.191-0.648
				C8.61,18.953,8.909,18.873,9.147,19C9.381,19.127,9.468,19.414,9.338,19.642z"/>
		</g>
		<g>
			<path fill="#FFFFFF" d="M22.004,18.081c-0.051,0.079-0.242,0.054-0.427-0.058l0,0c-0.182-0.107-0.292-0.259-0.245-0.339
				l6.199-4.534c0.051-0.077,0.241-0.052,0.425,0.059l0,0c0.184,0.109,0.296,0.261,0.243,0.34L22.004,18.081z"/>
			<path fill="#FFFFFF" d="M27.417,13.324c-0.043-0.079,0.071-0.228,0.262-0.331l0,0c0.188-0.101,0.382-0.12,0.428-0.039
				l2.818,4.886c0.046,0.078-0.068,0.226-0.259,0.328l0,0c-0.19,0.104-0.379,0.122-0.425,0.042L27.417,13.324z"/>
			<path fill="#FFFFFF" d="M27.348,13.691c0.115,0.27,0.438,0.396,0.715,0.283c0.279-0.108,0.412-0.418,0.296-0.685
				c-0.116-0.269-0.438-0.396-0.719-0.284C27.361,13.118,27.232,13.426,27.348,13.691z"/>
			<polygon fill="#FFFFFF" points="31.848,21.72 32.389,21.559 30.938,18.207 30.398,18.372 			"/>
			<polygon fill="#FFFFFF" points="32.694,24.005 33.002,23.959 32.4,21.7 32.092,21.742 			"/>
			<path fill="#FFFFFF" d="M31.925,21.865c0.067,0.149,0.251,0.217,0.409,0.145c0.161-0.067,0.228-0.246,0.158-0.396
				c-0.073-0.152-0.256-0.217-0.415-0.149C31.92,21.532,31.85,21.708,31.925,21.865z"/>
			<path fill="#FFFFFF" d="M30.128,18.149c0.117,0.205,0.382,0.278,0.594,0.16c0.213-0.113,0.291-0.369,0.173-0.573
				c-0.118-0.203-0.385-0.273-0.596-0.161C30.086,17.691,30.008,17.948,30.128,18.149z"/>
		</g>
		<g>
			<path fill="#FFFFFF" d="M18.264,20.821c0.047,0.08-0.39,0.102-0.21-0.01l0,0c0.18-0.109,0.908-0.312,0.861-0.387l-5.746-5.05
				c-0.05-0.079-0.234-0.051-0.413,0.061l0,0c-0.18,0.109-0.286,0.263-0.237,0.342L18.264,20.821z"/>
			<path fill="#FFFFFF" d="M13.299,15.504c0.034-0.084-0.091-0.219-0.288-0.298l0,0c-0.191-0.081-0.379-0.076-0.415,0.007
				l-2.168,5.217c-0.04,0.083,0.091,0.218,0.283,0.299l0,0c0.198,0.079,0.384,0.077,0.415-0.008L13.299,15.504z"/>
			<path fill="#FFFFFF" d="M13.344,15.924c-0.111,0.269-0.422,0.399-0.692,0.283c-0.271-0.109-0.397-0.422-0.287-0.693
				c0.112-0.27,0.424-0.396,0.692-0.286C13.331,15.342,13.454,15.651,13.344,15.924z"/>
			<polygon fill="#FFFFFF" points="9.688,24.344 9.158,24.2 10.453,20.777 10.979,20.923 			"/>
			<polygon fill="#FFFFFF" points="7.914,26.405 7.703,26.256 9.187,24.477 9.392,24.625 			"/>
			
				<rect x="18.002" y="19.354" transform="matrix(0.6311 -0.7757 0.7757 0.6311 -8.4005 21.9035)" fill="#FFFFFF" width="1.65" height="0.859"/>
			<circle fill="#FFFFFF" cx="18.323" cy="20.392" r="0.609"/>
			<path fill="#FFFFFF" d="M9.692,24.518c-0.083,0.196-0.304,0.284-0.499,0.206c-0.192-0.081-0.284-0.304-0.206-0.497
				c0.084-0.191,0.304-0.286,0.498-0.203C9.678,24.103,9.771,24.325,9.692,24.518z"/>
			<path fill="#FFFFFF" d="M11.229,20.647c-0.089,0.217-0.335,0.319-0.553,0.229c-0.22-0.088-0.321-0.335-0.233-0.554
				c0.092-0.216,0.339-0.319,0.554-0.229C11.218,20.183,11.318,20.432,11.229,20.647z"/>
		</g>
		<path fill="#FFFFFF" d="M23.326,19.507c-0.06,0.068,0.37,0.153,0.208,0.019l0,0c-0.16-0.134-0.854-0.438-0.793-0.507l6.404-4.183
			c0.06-0.07,0.238-0.018,0.399,0.115l0,0c0.165,0.139,0.245,0.304,0.189,0.373L23.326,19.507z"/>
		<path fill="#FFFFFF" d="M28.995,14.945c-0.022-0.092,0.124-0.202,0.326-0.254l0,0c0.206-0.055,0.387-0.026,0.411,0.062
			l1.409,5.475c0.022,0.088-0.125,0.201-0.328,0.253l0,0c-0.203,0.054-0.385,0.025-0.411-0.064L28.995,14.945z"/>
		<path fill="#FFFFFF" d="M28.891,15.351c0.075,0.287,0.36,0.457,0.645,0.384c0.284-0.073,0.457-0.363,0.381-0.645
			c-0.069-0.282-0.363-0.456-0.644-0.385C28.988,14.778,28.814,15.069,28.891,15.351z"/>
		<polygon fill="#FFFFFF" points="31.313,24.208 31.859,24.14 31.062,20.565 30.519,20.634 		"/>
		<polygon fill="#FFFFFF" points="31.216,25.87 31.514,25.86 31.891,24.23 31.593,24.233 		"/>
		
			<rect x="22.093" y="17.967" transform="matrix(-0.5148 -0.8573 0.8573 -0.5148 18.9438 47.5163)" fill="#FFFFFF" width="1.649" height="0.86"/>
		<circle fill="#FFFFFF" cx="23.328" cy="19.071" r="0.61"/>
		<path fill="#FFFFFF" d="M31.287,24.378c0.051,0.204,0.258,0.327,0.462,0.273c0.206-0.051,0.324-0.258,0.275-0.463
			c-0.054-0.201-0.259-0.323-0.462-0.272C31.358,23.969,31.234,24.178,31.287,24.378z"/>
		<circle fill="#FFFFFF" cx="30.723" cy="20.225" r="0.425"/>
		<ellipse fill="#FFFFFF" cx="21.707" cy="17.91" rx="3.394" ry="3.073"/>
		<g>
			<path fill="#FFFFFF" d="M19.894,18.569c0-0.092-0.175-0.162-0.385-0.157l0,0c-0.211,0.008-0.378,0.085-0.375,0.178l0.133,5.647
				c0.006,0.093,0.177,0.16,0.387,0.156l0,0c0.212-0.007,0.383-0.082,0.376-0.174L19.894,18.569z"/>
			<path fill="#FFFFFF" d="M20.15,18.346c0.005,0.291-0.229,0.535-0.52,0.541c-0.293,0.007-0.537-0.224-0.542-0.52
				c-0.008-0.29,0.224-0.532,0.517-0.54S20.144,18.054,20.15,18.346z"/>
			<path fill="#FFFFFF" d="M19.904,22.533c-0.019-0.088-0.203-0.131-0.408-0.092l0,0c-0.207,0.042-0.36,0.147-0.342,0.237
				l1.078,5.545c0.016,0.089,0.196,0.13,0.406,0.089l0,0c0.205-0.038,0.356-0.146,0.342-0.233L19.904,22.533z"/>
			<path fill="#FFFFFF" d="M20.169,22.857c0.059,0.284-0.129,0.566-0.416,0.619c-0.29,0.055-0.567-0.13-0.625-0.419
				c-0.054-0.287,0.134-0.564,0.42-0.623C19.834,22.382,20.115,22.57,20.169,22.857z"/>
			<path fill="#FFFFFF" d="M21.022,27.962c0.046,0.23-0.107,0.452-0.333,0.496c-0.232,0.047-0.456-0.104-0.501-0.337
				c-0.043-0.228,0.106-0.45,0.335-0.494C20.755,27.58,20.979,27.731,21.022,27.962z"/>
			
				<rect x="20.66" y="28.392" transform="matrix(0.9515 -0.3078 0.3078 0.9515 -7.9256 7.8357)" fill="#FFFFFF" width="0.435" height="1.302"/>
		</g>
		<path fill="#FFFFFF" d="M28.334,18.42c0.478-0.99,0.55-2.427,0.1-3.87c-0.707-2.269-2.083-2.642-3.503-2.128
			c-1.419,0.511-2.34,1.716-1.637,3.985c0.446,1.425,1.29,2.518,2.208,3.005c0.025,0.262,0.108,0.567,0.247,0.88
			c0.309,0.709,0.78,1.166,1.057,1.026c0.274-0.14,0.247-0.825-0.061-1.531c-0.017-0.036-0.033-0.07-0.046-0.105
			c0.146-0.011,0.296-0.041,0.442-0.097c0.144-0.052,0.274-0.117,0.4-0.203c0.005,0.066,0.013,0.134,0.022,0.203
			c0.115,0.772,0.448,1.354,0.752,1.305c0.297-0.05,0.447-0.718,0.337-1.493C28.593,19.003,28.475,18.654,28.334,18.42z"/>
		
			<ellipse transform="matrix(0.9913 0.1319 -0.1319 0.9913 2.1771 -3.1251)" fill="#FFFFFF" cx="24.671" cy="14.866" rx="0.574" ry="1.05"/>
		<g>
			<path fill="#FFFFFF" d="M25.512,16.154c0.077,0.016,0.145-0.053,0.154-0.149l0,0c0.008-0.1-0.046-0.19-0.121-0.208l-4.602-0.93
				c-0.071-0.014-0.142,0.054-0.15,0.151l0,0c-0.009,0.1,0.044,0.192,0.121,0.209L25.512,16.154z"/>
			<path fill="#FFFFFF" d="M25.683,16.312c-0.24-0.047-0.425-0.198-0.412-0.338c0.012-0.137,0.217-0.209,0.454-0.16
				c0.238,0.05,0.421,0.196,0.411,0.338C26.125,16.288,25.92,16.361,25.683,16.312z"/>
			<path fill="#FFFFFF" d="M20.997,15.271c-0.191-0.038-0.336-0.159-0.328-0.267c0.009-0.11,0.174-0.169,0.362-0.133
				c0.189,0.043,0.337,0.16,0.329,0.272C21.35,15.255,21.185,15.312,20.997,15.271z"/>
			<polygon fill="#FFFFFF" points="19.653,14.976 19.626,14.766 20.689,14.902 20.71,15.112 			"/>
		</g>
		<g>
			<path fill="#FFFFFF" d="M28.146,15.89c-0.02,0.031-0.085-0.03-0.146-0.139l0,0c-0.063-0.105-0.098-0.217-0.079-0.25l1.171-1.95
				c0.02-0.034,0.084,0.028,0.147,0.134l0,0c0.063,0.108,0.099,0.222,0.076,0.254L28.146,15.89z"/>
			<path fill="#FFFFFF" d="M28.177,16.098c0.06-0.104,0.039-0.307-0.044-0.455c-0.09-0.147-0.208-0.186-0.269-0.086
				c-0.063,0.104-0.041,0.308,0.045,0.452C27.996,16.158,28.117,16.195,28.177,16.098z"/>
			<path fill="#FFFFFF" d="M29.315,14.006c0.048-0.083,0.031-0.239-0.038-0.362c-0.066-0.119-0.164-0.151-0.212-0.07
				c-0.047,0.082-0.033,0.245,0.039,0.365C29.17,14.055,29.268,14.088,29.315,14.006z"/>
			<polygon fill="#FFFFFF" points="29.644,13.408 29.527,13.169 29.211,13.536 29.325,13.773 			"/>
		</g>
	</g>
</g>
</svg>
