<svg xmlns="http://www.w3.org/2000/svg" width="1356" height="600"><path d="M764.168 348.111a1.63 1.63 0 0 0-2.236-.598L0 787.429v3.765L763.57 350.35a1.669 1.669 0 0 0 .598-2.239zm84.742 48.927a1.659 1.659 0 0 0-1.429-.807c-.277 0-.551.065-.807.209L0 885.27v3.774l848.312-489.768a1.631 1.631 0 0 0 .598-2.238zm84.742 48.926a1.614 1.614 0 0 0-1.402-.8c-.28 0-.563.072-.813.221L8.904 978h6.512l917.635-529.8a1.63 1.63 0 0 0 .601-2.236zm84.764 48.949a1.651 1.651 0 0 0-1.42-.825c-.277 0-.557.072-.819.225L178.385 978h6.547l832.88-480.873a1.631 1.631 0 0 0 .604-2.214zm84.738 48.923a1.631 1.631 0 0 0-1.411-.819c-.274 0-.554.069-.807.221L347.915 978h6.515l748.123-431.944a1.606 1.606 0 0 0 .601-2.22zm84.761 48.93a1.631 1.631 0 0 0-2.236-.601L517.414 978h6.503l663.4-382.998a1.666 1.666 0 0 0 .598-2.236zm84.742 48.927c-.308-.52-.86-.81-1.427-.81-.271 0-.542.065-.791.209L686.904 978h6.518l578.636-334.071a1.63 1.63 0 0 0 .599-2.236zM1356 689.816a1.64 1.64 0 0 0-.819.221L856.413 978h6.525L1356 693.329v-3.513zm0 97.598L1025.893 978h6.544L1356 791.179zM1195.392 978h6.534L1356 889.042v-3.766zM679.408 201.334a1.633 1.633 0 0 0-1.411-.825c-.274 0-.551.075-.807.224L0 591.695v3.778l678.807-391.924a1.609 1.609 0 0 0 .601-2.215zm0-97.875a1.625 1.625 0 0 0-1.411-.813 1.65 1.65 0 0 0-.807.212L0 493.838v3.762l678.807-391.902a1.632 1.632 0 0 0 .601-2.239zm0-97.853a1.634 1.634 0 0 0-1.411-.822 1.59 1.59 0 0 0-.807.221L0 395.966v3.781L678.807 7.823a1.607 1.607 0 0 0 .601-2.217zm0-97.872a1.65 1.65 0 0 0-1.426-.81c-.268 0-.542.065-.791.209L0 298.113v3.762L678.807-90.03a1.628 1.628 0 0 0 .601-2.236zm0-97.854a1.63 1.63 0 0 0-1.411-.822 1.6 1.6 0 0 0-.807.221L0 200.26v3.762l678.807-391.905a1.63 1.63 0 0 0 .601-2.237zm0-97.875c-.305-.511-.85-.8-1.408-.8-.274 0-.551.069-.81.221L0 102.388v3.759l678.807-391.902a1.634 1.634 0 0 0 .601-2.24zM662.556-378L0 4.531v3.766L669.087-378zm-169.493.003L0-93.341v3.781l499.572-288.437zm-169.493 0L0-191.194v3.762l330.076-190.565zm-169.502 0L0-289.047v3.762l160.58-92.712z" opacity=".25" fill="#4040DF"/><path d="M677.988 200.509c-.563 0-1.112.296-1.417.825-.436.766-.165 1.759.601 2.214L1356 595.475v-3.781L678.807 200.733a1.636 1.636 0 0 0-.819-.224zm0-97.863c-.563 0-1.112.286-1.417.813a1.67 1.67 0 0 0 .601 2.239L1356 497.604v-3.762L678.807 102.858a1.695 1.695 0 0 0-.819-.212zm0-97.862a1.64 1.64 0 0 0-1.417.822c-.436.788-.165 1.781.601 2.217L1356 399.747v-3.768L678.807 5.005a1.632 1.632 0 0 0-.819-.221zm-.006-97.854c-.561 0-1.106.29-1.411.803a1.667 1.667 0 0 0 .601 2.236L1356 301.878v-3.762L678.807-92.849a1.647 1.647 0 0 0-.825-.221zm.006-97.872c-.563 0-1.112.293-1.417.822a1.667 1.667 0 0 0 .601 2.236L1356 204.022v-3.762L678.807-190.72a1.633 1.633 0 0 0-.819-.222zm0-97.853a1.64 1.64 0 0 0-1.417.822c-.436.766-.165 1.76.601 2.217l678.825 391.924v-3.781l-677.19-390.962a1.651 1.651 0 0 0-.819-.22zM1355.997 4.544L693.441-378h-6.549L1355.997 8.297zm0-97.885L862.937-378h-6.524l499.584 288.44zm0-97.853L1032.427-378h-6.515l330.085 190.568zm0-97.853L1201.929-378h-6.524l160.592 92.715zm-761.932 636.56a1.637 1.637 0 0 0-2.236.598 1.634 1.634 0 0 0 .601 2.239L1356 791.194v-3.765L594.065 347.513zm-85.558 48.718a1.64 1.64 0 0 0-1.42.807 1.648 1.648 0 0 0 .579 2.239L1356 889.057v-3.784L509.305 396.44a1.587 1.587 0 0 0-.798-.209zm-84.763 48.933c-.567 0-1.112.29-1.417.8-.433.791-.184 1.785.601 2.236l917.65 529.8h6.497L424.566 445.385a1.661 1.661 0 0 0-.822-.221zm-84.745 48.923a1.64 1.64 0 0 0-1.411.825c-.454.766-.187 1.76.601 2.215L1171.066 978h6.525L339.802 494.312a1.54 1.54 0 0 0-.803-.225zm-84.755 48.93c-.567 0-1.115.293-1.42.819-.436.769-.165 1.784.604 2.22L1001.567 978h6.518L255.063 543.238a1.625 1.625 0 0 0-.819-.221zm-84.741 48.927c-.567 0-1.112.293-1.417.822a1.597 1.597 0 0 0 .601 2.215L832.065 978h6.518L170.322 592.165a1.602 1.602 0 0 0-.819-.221zm-84.748 48.939c-.57 0-1.118.29-1.411.81a1.64 1.64 0 0 0 .579 2.236L662.575 978h6.503L85.558 641.091a1.63 1.63 0 0 0-.803-.208zM0 689.816v3.513L493.051 978h6.54L.816 690.037a1.65 1.65 0 0 0-.816-.221zm0 101.378L323.558 978h6.527L0 787.429zm0 97.854L154.068 978h6.534L0 885.279z" opacity=".25" fill="#DF4040"/><path d="M593.24 350.556c.912 0 1.635-.723 1.635-1.613V-378l-3.251.003v726.939a1.616 1.616 0 0 0 1.616 1.614zm-84.742 48.948c.891 0 1.638-.744 1.638-1.635v-775.866h-3.276v775.866c0 .891.725 1.635 1.638 1.635zm-84.761 48.927c.91 0 1.635-.726 1.635-1.635v-824.792h-3.254v824.792c0 .909.729 1.635 1.619 1.635zm-84.745 48.926c.894 0 1.641-.726 1.641-1.638v-873.716h-3.276v873.716c0 .913.748 1.638 1.635 1.638zm-84.738 48.924a1.62 1.62 0 0 0 1.616-1.635v-922.643h-3.251v922.643c0 .912.722 1.635 1.635 1.635zm-84.761 48.926c.912 0 1.635-.722 1.635-1.613v-971.591h-3.273v971.591c0 .891.748 1.613 1.638 1.613zm-84.742 48.949c.891 0 1.616-.744 1.616-1.635l.019-1020.518h-3.27V642.521c0 .891.723 1.635 1.635 1.635zm677.988-293.6a1.62 1.62 0 0 0 1.638-1.613V-378h-3.267l.016 726.942c0 .891.725 1.614 1.613 1.614zm84.763 48.948c.891 0 1.617-.744 1.617-1.635V-378h-3.255v775.869c0 .891.729 1.635 1.638 1.635zm84.742 48.927c.909 0 1.635-.726 1.635-1.635V-378h-3.273v824.795c0 .91.744 1.636 1.638 1.636zm84.761 48.926c.891 0 1.617-.726 1.617-1.638V-378h-3.255v873.719a1.63 1.63 0 0 0 1.638 1.638zm84.742 48.924c.909 0 1.638-.723 1.638-1.635V-378h-3.273v922.646c0 .912.744 1.635 1.635 1.635zm84.76 48.926c.891 0 1.616-.722 1.616-1.613V-378h-3.251v971.594a1.62 1.62 0 0 0 1.635 1.613zm84.742 48.949a1.65 1.65 0 0 0 1.635-1.635V-378h-3.273V642.521c0 .891.725 1.635 1.638 1.635z" opacity=".25" fill="#40DF40"/><g opacity=".25"><path fill="#4040DF" d="M677.19 298.583a1.633 1.633 0 0 0-.598 2.239 1.654 1.654 0 0 0 2.214.602l677.19-390.98v-3.777L677.19 298.583z"/><path fill="#DF4040" d="M677.982 301.629c.567 0 1.121-.29 1.426-.807a1.632 1.632 0 0 0-.601-2.239L0-93.322v3.784l677.19 390.962c.25.14.524.205.792.205z"/><path fill="#40DF40" d="M679.638 299.994c0-.891-.748-1.616-1.638-1.616-.891 0-1.635.726-1.635 1.616V978h3.248l.025-678.006z"/></g><path fill="#4040DF" d="M680.819 298.365a3.262 3.262 0 0 0-4.454-1.193L0 687.676v7.534l679.629-392.385a3.264 3.264 0 0 0 1.19-4.46z"/><path fill="#DF4040" d="M679.623 297.175a3.263 3.263 0 0 0-3.263 5.65L1356 695.21v-7.534L679.623 297.175z"/><path fill="#40DF40" d="M677.997 303.267c1.8 0 3.26-1.461 3.26-3.264L681.261-378h-6.525l-.003 678.003a3.263 3.263 0 0 0 3.264 3.264z"/><circle cx="678.001" cy="300.003" r="3.736"/></svg>