<svg version="1.2" baseProfile="tiny" xmlns="http://www.w3.org/2000/svg" width="219.117" height="39.882"><path d="M66.587 19.171c.944-1.255 1.415-2.812 1.415-4.675 0-1.375-.266-2.51-.798-3.409-.522-.893-1.26-1.636-2.193-2.224a8.267 8.267 0 00-2.822-1.087c-1.039-.201-2.344-.304-3.91-.304H51.03V33.29h3.444V23.026h4.833l8.659 10.265h4.458l-9.719-11.286c1.648-.635 2.938-1.581 3.882-2.834zm-8.619.964h-3.494v-9.71h4.066c.929 0 1.736.065 2.419.201.692.13 1.285.363 1.782.697.602.392 1.039.871 1.3 1.446.262.567.392 1.225.392 1.958 0 .969-.125 1.767-.376 2.395a4.485 4.485 0 01-1.16 1.667c-.567.522-1.26.873-2.073 1.064-.814.186-1.767.282-2.856.282zm22.749.557v12.599h17.028v-3.076H84.156v-9.523h10.636v-3.078H84.156v-7.066h13.589V7.473H80.717v10.141m43.672-8.093c-1.023-.638-2.283-1.136-3.769-1.502-1.486-.366-3.49-.547-6.015-.547h-6.45V33.29h6.525c2.364 0 4.277-.16 5.728-.484a12.776 12.776 0 003.946-1.576c1.701-1.057 3.066-2.532 4.091-4.439 1.024-1.908 1.531-4.031 1.531-6.381 0-2.507-.492-4.676-1.472-6.501a11.492 11.492 0 00-4.115-4.388zm1.054 15.865c-.638 1.34-1.602 2.419-2.886 3.24a9.777 9.777 0 01-3.394 1.353c-1.24.241-2.681.363-4.338.363h-3.228V10.425h3.228c1.597 0 2.972.113 4.122.339 1.144.224 2.229.625 3.242 1.202 1.4.799 2.455 1.888 3.163 3.279.707 1.385 1.059 3.093 1.059 5.115.001 2.008-.32 3.685-.968 5.026zm59.715 3.172L173.994 7.473h-5.315v25.818h3.198V10.199l12.237 23.092h4.238V7.473h-3.194zm12.073-21.085v3.075h9.221v22.743h3.444V10.548h9.221V7.473zm-40.71 19.564l-9.417-25.825h-.026L144.8 7.473h-.021l-9.412 25.818h3.464l2.204-6.254.105-.307.231-.626.101-.264.868-2.443.085-.246 4.548-12.696 4.538 12.696 3.604 10.14h3.669l-2.223-6.163zm-5.01-3.886l-4.538-12.696M37.184 19.942c0 9.508-7.736 17.243-17.244 17.243S2.696 29.45 2.696 19.942c0-9.51 7.736-17.246 17.244-17.246s17.244 7.737 17.244 17.246zM19.94 0C8.945 0 0 8.946 0 19.942c0 10.995 8.945 19.939 19.94 19.939s19.94-8.944 19.94-19.939C39.88 8.946 30.935 0 19.94 0z" fill="#CE0005"/><g fill="#CE0005"><path d="M20.725 18.8c.022.081-.368-.01-.182-.061.187-.052.873-.049.852-.127l-3.766-5.856c-.02-.077-.188-.1-.373-.047-.183.047-.32.153-.293.238l3.762 5.853zm-3.065-5.799c.042-.072-.052-.21-.216-.313-.163-.099-.332-.122-.375-.051l-2.707 4.377c-.043.068.053.208.217.31.164.101.332.123.375.054l2.706-4.377zm-.011.28a.491.491 0 01-.682.076.482.482 0 11.602-.753.478.478 0 01.08.677zm-4.516 7.145l-.453-.206 1.657-2.891.455.208zm-1.261 1.973l-.209-.095 1.028-1.842.21.096zm1.24-1.814a.349.349 0 01-.476.111.34.34 0 01-.113-.471.343.343 0 01.479-.115c.159.1.21.311.11.475zm1.944-3.258a.392.392 0 01-.53.127.385.385 0 11.404-.658c.181.111.237.35.126.531zm3.561-1.446s-3.832-.557-5.014 2.501c-1.186 3.061.487 6.19.764 6.538.28.348 2.229.279 3.416-.693 1.182-.975 2.298-2.644 2.368-3.268.067-.625 2.227-3.757-1.534-5.078zm-.177 3.684c.055.089.269.057.475-.063.209-.123.332-.296.275-.383l-6.946-5.08c-.055-.087-.266-.057-.474.065-.207.124-.329.295-.271.381l6.941 5.08zm-6.068-5.33c.053-.09-.082-.254-.291-.371-.211-.113-.428-.135-.48-.046l-3.157 5.475c-.055.089.079.255.29.369.212.114.426.137.478.05l3.16-5.477zm.081.411a.62.62 0 01-.803.32.58.58 0 01-.328-.771.622.622 0 01.802-.319c.31.13.458.472.329.77zm-5.043 9l-.606-.184 1.63-3.754.6.181zm-.95 2.555l-.339-.049.672-2.533.342.051zm.868-2.398a.359.359 0 01-.465.166.335.335 0 01-.176-.445.356.356 0 01.466-.168.331.331 0 01.175.447zm2.01-4.161a.497.497 0 01-.666.183.468.468 0 01-.191-.648.5.5 0 01.666-.177.467.467 0 01.191.642zm12.666-1.561c-.051.079-.242.054-.427-.058-.182-.107-.292-.259-.245-.339l6.199-4.534c.051-.077.241-.052.425.059.184.109.296.261.243.34l-6.195 4.532zm5.413-4.757c-.043-.079.071-.228.262-.331.188-.101.382-.12.428-.039l2.818 4.886c.046.078-.068.226-.259.328-.19.104-.379.122-.425.042l-2.824-4.886zm-.069.367c.115.27.438.396.715.283a.516.516 0 00.296-.685.558.558 0 00-.719-.284.517.517 0 00-.292.686zm4.5 8.029l.541-.161-1.451-3.352-.54.165zm.846 2.285l.308-.046L32.4 21.7l-.308.042zm-.769-2.14a.308.308 0 00.409.145.293.293 0 00.158-.396.319.319 0 00-.415-.149.292.292 0 00-.152.4zm-1.797-3.716a.438.438 0 00.594.16.412.412 0 00.173-.573.448.448 0 00-.596-.161.413.413 0 00-.171.574zm-11.864 2.672c.047.08-.39.102-.21-.01.18-.109.908-.312.861-.387l-5.746-5.05c-.05-.079-.234-.051-.413.061-.18.109-.286.263-.237.342l5.745 5.044zm-4.965-5.317c.034-.084-.091-.219-.288-.298-.191-.081-.379-.076-.415.007l-2.168 5.217c-.04.083.091.218.283.299.198.079.384.077.415-.008l2.173-5.217zm.045.42a.53.53 0 11-.977-.414.53.53 0 01.977.414zm-3.656 8.42l-.53-.144 1.295-3.423.526.146zm-1.774 2.061l-.211-.149 1.484-1.779.205.148zm10.059-6.251l1.041-1.28.666.542-1.041 1.28z"/><circle cx="18.323" cy="20.392" r=".609"/><path d="M9.692 24.518a.384.384 0 01-.499.206.385.385 0 01-.206-.497.382.382 0 01.705.291zm1.537-3.871a.421.421 0 01-.553.229.422.422 0 11.321-.783c.221.09.321.339.232.554zm12.097-1.14c-.06.068.37.153.208.019-.16-.134-.854-.438-.793-.507l6.404-4.183c.06-.07.238-.018.399.115.165.139.245.304.189.373l-6.407 4.183zm5.669-4.562c-.022-.092.124-.202.326-.254.206-.055.387-.026.411.062l1.409 5.475c.022.088-.125.201-.328.253-.203.054-.385.025-.411-.064l-1.407-5.472zm-.104.406a.529.529 0 101.026-.261.533.533 0 00-.644-.385.528.528 0 00-.382.646zm2.422 8.857l.546-.068-.797-3.575-.543.069zm-.097 1.662l.298-.01.377-1.63-.298.003zm-8.243-6.543l-.849-1.414.737-.443.849 1.414z"/><circle cx="23.328" cy="19.071" r=".61"/><path d="M31.287 24.378a.376.376 0 00.462.273.38.38 0 00.275-.463.381.381 0 00-.737.19z"/><circle cx="30.723" cy="20.225" r=".425"/><ellipse cx="21.707" cy="17.91" rx="3.394" ry="3.073"/><path d="M19.894 18.569c0-.092-.175-.162-.385-.157-.211.008-.378.085-.375.178l.133 5.647c.006.093.177.16.387.156.212-.007.383-.082.376-.174l-.136-5.65zm.256-.223a.534.534 0 01-.52.541.529.529 0 11-.025-1.06.533.533 0 01.545.519zm-.246 4.187c-.019-.088-.203-.131-.408-.092-.207.042-.36.147-.342.237l1.078 5.545c.016.089.196.13.406.089.205-.038.356-.146.342-.233l-1.076-5.546zm.265.324a.524.524 0 01-.416.619.533.533 0 01-.625-.419.536.536 0 01.42-.623.535.535 0 01.621.423zm.853 5.105a.424.424 0 11-.835.16.424.424 0 01.835-.16zm-.551.53l.414-.134.401 1.239-.414.134zm7.863-10.072c.478-.99.55-2.427.1-3.87-.707-2.269-2.083-2.642-3.503-2.128-1.419.511-2.34 1.716-1.637 3.985.446 1.425 1.29 2.518 2.208 3.005.025.262.108.567.247.88.309.709.78 1.166 1.057 1.026.274-.14.247-.825-.061-1.531l-.046-.105a1.56 1.56 0 00.442-.097 1.75 1.75 0 00.4-.203l.022.203c.115.772.448 1.354.752 1.305.297-.05.447-.718.337-1.493-.059-.394-.177-.743-.318-.977z"/><ellipse transform="rotate(7.7 24.684 14.81)" cx="24.671" cy="14.866" rx=".574" ry="1.05"/><path d="M25.512 16.154c.077.016.145-.053.154-.149.008-.1-.046-.19-.121-.208l-4.602-.93c-.071-.014-.142.054-.15.151-.009.1.044.192.121.209l4.598.927zm.171.158c-.24-.047-.425-.198-.412-.338.012-.137.217-.209.454-.16.238.05.421.196.411.338-.011.136-.216.209-.453.16zm-4.686-1.041c-.191-.038-.336-.159-.328-.267.009-.11.174-.169.362-.133.189.043.337.16.329.272-.01.112-.175.169-.363.128zm-1.344-.295l-.027-.21 1.063.136.021.21zm8.493.914c-.02.031-.085-.03-.146-.139-.063-.105-.098-.217-.079-.25l1.171-1.95c.02-.034.084.028.147.134.063.108.099.222.076.254l-1.169 1.951zm.031.208c.06-.104.039-.307-.044-.455-.09-.147-.208-.186-.269-.086-.063.104-.041.308.045.452.087.149.208.186.268.089zm1.138-2.092c.048-.083.031-.239-.038-.362-.066-.119-.164-.151-.212-.07-.047.082-.033.245.039.365.066.116.164.149.211.067zm.329-.598l-.117-.239-.316.367.114.237z"/></g></svg>