<svg xmlns="http://www.w3.org/2000/svg" viewBox="0 0 220 40"><g fill="#CE0005"><path d="M66.855 19.248c.948-1.26 1.421-2.823 1.421-4.694 0-1.381-.267-2.52-.801-3.423-.524-.897-1.265-1.643-2.202-2.233a8.282 8.282 0 0 0-2.833-1.091c-1.043-.202-2.353-.305-3.926-.305h-7.278v25.922h3.458V23.119h4.852l8.694 10.306h4.476l-9.758-11.331c1.654-.638 2.95-1.588 3.897-2.846zm-8.653.968h-3.508v-9.749h4.082c.933 0 1.743.065 2.429.202.695.131 1.29.364 1.789.7.604.394 1.043.875 1.305 1.452.263.569.394 1.23.394 1.966 0 .973-.126 1.774-.378 2.405a4.503 4.503 0 0 1-1.165 1.674c-.569.524-1.265.877-2.081 1.068-.817.186-1.774.282-2.867.282zm22.84 13.209h17.097v-3.088H84.495v-9.561h10.679v-3.09H84.495v-7.094h13.644V7.503H81.042m43.848 2.056c-1.027-.641-2.292-1.141-3.784-1.508s-3.504-.549-6.039-.549h-6.476v25.922h6.551c2.374 0 4.294-.161 5.751-.486a12.819 12.819 0 0 0 3.962-1.582c1.708-1.061 3.078-2.542 4.107-4.457 1.028-1.916 1.537-4.047 1.537-6.407 0-2.517-.494-4.695-1.478-6.527a11.538 11.538 0 0 0-4.131-4.406zm1.059 15.929c-.641 1.345-1.608 2.429-2.898 3.253a9.809 9.809 0 0 1-3.408 1.358c-1.245.242-2.692.364-4.355.364h-3.241V10.467h3.241c1.603 0 2.984.113 4.139.34 1.149.225 2.238.628 3.255 1.207 1.406.802 2.465 1.896 3.176 3.292.71 1.391 1.063 3.105 1.063 5.136 0 2.016-.322 3.7-.972 5.046zm21.748-24.271h-.026l-11.758 32.208h3.478l8.175-22.928 8.175 22.928h3.684L147.697 1.217zm38.207 27.456l-11.209-21.17h-5.336v25.922h3.211V10.24l12.286 23.185h4.255V7.503h-3.207v21.17zm12.122-21.17v3.087h9.258v22.835h3.458V10.591H220V7.503h-21.974zM37.296 20.002c0 9.536-7.759 17.294-17.296 17.294S2.704 29.538 2.704 20.002c0-9.538 7.759-17.297 17.296-17.297s17.296 7.759 17.296 17.297zM20 0C8.972 0 0 8.973 0 20.002 0 31.029 8.972 40 20 40s20-8.971 20-19.998C40 8.973 31.028 0 20 0z"/><path d="M33.135 24.056l-.553-2.075c.058-.083.086-.182.041-.279-.027-.056-.08-.086-.13-.116l-1.43-3.304-.146.044a.405.405 0 0 0 .103-.517c-.022-.038-.054-.066-.085-.095l-.608-1.054-.31-1.205a.512.512 0 0 0 .021-.303.515.515 0 0 0-.164-.256l-.021-.083c-.024-.088-.206-.117-.413-.062l-.039.014h-.009c-.008.002-.013.008-.021.01a.774.774 0 0 0-.104.044l-.16-.277.274-.457c.019-.006.041 0 .054-.022.037-.065.025-.172-.01-.276l.02.042.32-.366-.117-.24-.317.368.04.083c-.047-.065-.097-.083-.141-.063-.005.001-.015-.01-.019-.005l-.01.016c-.005.005-.013 0-.017.007-.004.007-.001.021-.004.029l-.297.494-.375-.651c-.005-.053-.01-.107-.033-.159a.51.51 0 0 0-.181-.211l-.072-.125c-.046-.081-.241-.062-.43.039l-.01.006c-.01.003-.02.002-.029.006l-.01.007c-.74-.86-1.711-.954-2.71-.592-1.119.403-1.916 1.245-1.871 2.687a3.683 3.683 0 0 0-1.366-.262c-.21 0-.414.023-.614.056-.022-.007-.042-.017-.065-.022-.154-.03-.288.007-.338.08l-.005-.049-1.067-.137.027.211.756.097c-.35.132-.662.322-.941.546l-1.726-2.684a.476.476 0 0 0-.181-.341.484.484 0 0 0-.682.074.48.48 0 0 0-.09.394l-1.839 2.973-2.535-1.854a.613.613 0 0 0-.322-.311c-.011-.004-.023-.003-.035-.006l-.008-.006c-.212-.113-.43-.136-.482-.046l-.083.145a.584.584 0 0 0-.197.234c-.024.055-.029.112-.035.168L8.6 19.159c-.031.029-.063.057-.085.095a.458.458 0 0 0 .107.58l-.154-.047-1.606 3.698c-.058.034-.118.069-.148.133-.049.108-.016.219.048.314l-.617 2.325.34.049.596-2.235c.115-.015.222-.062.276-.173a.323.323 0 0 0 .024-.175l.058.018 1.631-3.772-.054-.016a.481.481 0 0 0 .36-.232.436.436 0 0 0 .052-.24l2.548-4.416a.644.644 0 0 0 .213-.05l.434.317-.006.015a.515.515 0 0 0-.202.23.523.523 0 0 0-.02.305l-1.833 4.41a.426.426 0 0 0-.077.113.42.42 0 0 0 .136.492l-.126-.035-1.23 3.252a.388.388 0 0 0-.242.212.383.383 0 0 0 .075.402l-1.364 1.635.212.15 1.385-1.669a.38.38 0 0 0 .4-.226.37.37 0 0 0 .013-.22l1.279-3.389-.088-.024a.416.416 0 0 0 .339-.253.411.411 0 0 0 .021-.224l1.758-4.22.02-.004 1.234 1.083a3.755 3.755 0 0 0-.649 1.09c-.07.18-.128.361-.179.541l-.659 1.149a.345.345 0 0 0-.247.161c-.087.136-.044.302.071.414l-.934 1.674.21.095.94-1.682c.12.003.237-.031.305-.139.033-.054.025-.113.028-.171l.06-.104c-.13 2.342.954 4.352 1.173 4.627.281.349 2.238.28 3.43-.696.502-.414.987-.952 1.39-1.483l.001.007a.516.516 0 0 0-.041.302c.018.09.063.165.117.231l.022.954c.004.066.093.117.218.141l.708 3.641c-.004.039-.009.078-.001.118a.42.42 0 0 0 .389.338l-.104.034.402 1.244.416-.134-.402-1.244-.009.003a.42.42 0 0 0 .146-.4.4.4 0 0 0-.103-.196l-.871-4.492a.515.515 0 0 0 .118-.437.513.513 0 0 0-.18-.295l-.026-1.076c.101-.212.172-.401.187-.535.007-.068.042-.17.088-.291a3.66 3.66 0 0 0 1.474.315c1.465 0 2.703-.842 3.185-2.016.202.176.411.325.625.439.025.263.108.569.248.884.31.712.783 1.171 1.061 1.03.275-.141.248-.828-.061-1.537a1.343 1.343 0 0 1-.046-.105c.147-.011.297-.041.444-.097.145-.052.275-.117.402-.204.005.066.013.135.022.204.115.775.45 1.359.755 1.31.298-.05.449-.721.338-1.499-.059-.396-.178-.746-.319-.981.316-.655.434-1.511.364-2.429l.195-.128.62 1.073.817 3.176c-.012.039-.024.077-.024.12 0 .19.127.346.299.401l-.077.01.787 3.542a.364.364 0 0 0-.016.217.37.37 0 0 0 .216.249l-.288 1.249.299-.01.286-1.238a.379.379 0 0 0 .226-.441.375.375 0 0 0-.209-.243l-.757-3.394-.12.015a.42.42 0 0 0 .206-.357.418.418 0 0 0-.061-.207l-.035-.138.799 1.846.069-.021c-.007.055-.019.11.008.166.044.097.138.14.241.153l.531 1.996.31-.05zM15.693 16.35l1.712-2.769 1.606 2.498c-.106-.045-.201-.093-.319-.134 0 0-1.559-.223-2.999.405z"/></g></svg>