<?xml version="1.0" encoding="utf-8"?>
<svg version="1.1" id="Layer_1" xmlns="http://www.w3.org/2000/svg" xmlns:xlink="http://www.w3.org/1999/xlink" x="0px" y="0px" width="120px" height="73.23px" viewBox="0 0 120 73.23" enable-background="new 0 0 120 73.23" xml:space="preserve">
<path fill="#E6FF3F" d="M3.69,20.93c-10.6,20.1,1.28,44.38,40.33,51.09c39.07,6.73,78.17-15.44,75.88-48.41c-0.53-7.85-3.34-13.25-7.47-16.87C99.4-4.85,73.4,1.64,67.66,3.39c-7.53,2.3-16.44,7.04-16.44,7.04S16.35-3,3.69,20.93"/>
<path fill="#470AFF" d="M76.01,33.05c0,0-0.04-0.63-1.12-1.28c-1.1-0.63-2.01-1.26-5.03-1.22c-3.03,0-4.54,0.75-5.35,1.22c-0.79,0.47-2.91,2.54-3.4,4.72c0,0,1.53,0.59,1.55,1.55c0.06,1.71-0.22,3.28-0.37,4.31C62.17,43.14,61.97,44,61.97,44c1.26,1.59,2.81,2.81,4.82,3.48c1.53,0.53,3.76,0.51,6.14,0.04c2.38-0.47,2.97-1.28,3.4-2.12c0.22-0.37,0.28-1.06,0.28-1.75c-0.04-0.67-0.06-3.87-0.06-3.87s0-0.43-0.2-0.81c-0.28-0.51-0.67-1.16-2.16-1.34c-0.81-0.06-3.13-0.04-3.44-0.04c-0.35,0-0.94,0.2-1.26,0.63c-0.35,0.43-0.37,0.96-0.37,1.49c0.04,0.51,0.04,1.44,0.69,1.97c0.43,0.31,0.75,0.31,0.81,0.35c0.06,0,0.28,0.16,0.28,0.43c0,0.28,0.04,0.63-0.53,0.63c-0.59,0-1.75-0.16-2.22-0.63c-0.51-0.47-1.06-0.9-1.22-2.54c-0.16-1.63,0.75-3.72,1.75-4.19c1-0.51,2.16-0.47,2.46-0.31c0.35,0.16,0.75,0.35,1.44,0.75c0.81,0.43,1.55,0.06,2.01-0.37C74.95,35.27,76.23,33.56,76.01,33.05 M83.11,45.18l-0.06-12.55c0,0,0-0.81-0.43-1.28c-0.43-0.47-0.69-0.53-1.34-0.59c-0.63-0.04-1.87,0-2.18,0c-0.28,0.04-1.06,0.16-1.44,0.75c-0.31,0.47-0.37,0.85-0.37,2.54s0.16,10.91,0.16,10.91s0,0.85,0.12,1.26c0.12,0.35,0.67,0.81,0.85,0.96c0.22,0.16,0.67,0.28,1.55,0.31c0.9,0,1.69,0,2.16-0.31C82.58,46.81,83.11,46.3,83.11,45.18 M94.56,33.89c0,0,0.2-1.44-0.06-2.3c-0.2-0.67-0.94-0.96-3.34-0.94c-2.44,0.04-4.46,0-4.99,0.06c-0.53,0.04-1.28,0.31-1.65,0.81c-0.35,0.51-0.31,1.42-0.28,3.03c0.04,1.59,0.12,7.32,0.12,8.16s-0.04,2.12,0,2.3c0,0.2-0.12,0.81,0.47,1.53c0.59,0.69,1,0.75,1.1,0.75c0.06,0.04,0.63,0.06,1.26,0.06s5.88,0,5.88,0s1.1,0.04,1.53-0.59c0.31-0.47,0.35-1.22,0.35-1.42c0-0.22,0.04-1.16-0.2-1.55c-0.26-0.37-0.53-0.63-1.53-0.67c-0.2-0.04-3.4-0.04-3.4-0.04l-0.04-2.12h2.06c0,0,0.53,0,0.9-0.35c0.37-0.35,0.51-0.79,0.51-1.1s-0.04-1.69-0.04-1.69s0-1-1.26-1.1c-0.51-0.04-2.22-0.04-2.22-0.04v-1.91h3.48C93.22,34.9,94.46,34.94,94.56,33.89 M101.15,34.84c0,0,0.35-0.85,1.69-0.63c1.26,0.22,2.01,0.69,2.22,0.9c0.22,0.22,0.67,0.63,1.06,0.47c0.37-0.16,0.63-0.37,0.67-0.85c0.06-0.51,0-2.03,0-2.03s0.04-0.75-0.47-1.16c-0.37-0.35-1.75-1.12-4.31-1.06c-2.56,0.06-4.66,0.37-6.04,3.13c0,0-0.47,0.94-0.47,2.03c0,1.1-0.04,1.69,0.35,2.34c0.47,0.81,1.12,1.38,1.26,1.44c0.14,0.06,1,0.67,1.38,0.85c0.35,0.18,2.38,1.16,2.91,1.49c0.51,0.31,1.06,0.79,0.75,1.42c-0.2,0.43-0.75,0.67-1.81,0.28c-1-0.37-1.69-0.94-1.87-1.06c-0.2-0.12-0.69-0.43-1.42-0.31c-0.73,0.12-1.42,1.85-1.53,2.12c-0.28,0.59-0.28,1-0.12,1.42c0.12,0.35,1.1,1,1.55,1.26c0.43,0.2,1.97,1.16,4.98,0.94c3.01-0.22,4.56-2.3,4.98-3.24c0.37-0.94,0.67-2.12,0.51-3.32c-0.16-1.22-1.1-2.65-2.38-3.32c-1.26-0.69-2.77-1.26-3.24-1.53C101.42,36.02,101.03,35.54,101.15,34.84 M25.91,47.68c-0.47,0-0.85-0.16-1.22-0.43c-0.94-0.67-0.94-1.53-0.94-1.53l-0.04-1.26v-0.22c0,0,0-3.17-0.04-5.09c-1.06,0-3.83,0-3.99,0.04c0,0.35,0.04,6.53,0.04,6.53c0,1.1-0.9,2.01-2.01,2.03h-2.93c-0.47,0-0.85-0.16-1.22-0.43c-0.94-0.67-0.94-1.53-0.94-1.53l-0.04-1.26l-0.16-15.16c0.06-2.46-0.35-3.93,2.65-4.03c1.42-0.04,2.75-0.12,3.32,0.06c0.2,0.04,0.51,0.2,0.67,0.35l0.12,0.12l0.12,0.12c0.31,0.51,0.31,0.75,0.31,1.28c0,0,0,4.23,0.04,6.04c1.12,0,3.48,0,3.91,0c0-0.35,0-3.4,0-3.4v-0.59c0.06-2.46-0.35-3.93,2.65-4.03h2.65c0.16,0,0.63-0.06,1.16,0.51l0,0c0.37,0.35,0.63,0.85,0.63,1.42v2.85l0.04,13.06v2.5c0,1.1-0.9,2.01-2.01,2.03L25.91,47.68L25.91,47.68z M45.57,32.02c0.04,0.2,0.22,1.69,0.2,2.81c-0.04,1.1,0,7.16,0,7.16c0,1.53-0.59,2.85-1.65,3.93c-1.34,1.34-3.24,2.03-5.41,2.03c-0.96,0-3.19-0.22-4.94-1.53c-0.81-0.59-1.26-1.34-1.53-1.81c-0.22-0.51-0.51-2.01-0.51-2.44c0-0.37-0.12-5.82-0.06-6.73c0.04-0.9-0.22-2.93,0.37-3.76c0.63-0.81,1.38-0.79,2.75-0.85c1.34-0.04,1.87,0.37,1.87,0.37s0,0,0.04,0c0.04,0.04,0.06,0.04,0.06,0.04s0.04,0,0.04,0.04c0.37,0.35,0.63,0.85,0.63,1.44c0,0.06,0.04,8.85,0.04,8.87c0,0,0.06,1.38,1.34,1.38c1.26,0,1.28-1.16,1.28-1.42l-0.06-6.15c0.04-0.9-0.22-2.91,0.37-3.76c0.63-0.81,1.38-0.81,2.75-0.85c1.38-0.04,1.91,0.37,1.91,0.37C44.98,31.3,45.51,31.65,45.57,32.02 M61.84,39.26c0,0-0.37,3.17-0.63,4.4c-0.28,1.26-0.96,1.81-1.87,2.12c-0.9,0.31-2.75,0.79-5.47,0.28c-2.77-0.47-3.91-1.26-5.43-2.77c-1.53-1.53-2.28-3.48-2.16-6.21c0.12-2.71,1.26-4.82,2.46-5.9c1.22-1.12,3.56-2.5,6.9-2.34c3.4,0.16,4.09,0.9,4.99,1.42c0.75,0.43,1.59,1.26,1.59,2.03c0,0.75-1.55,2.3-1.65,2.46c-0.06,0.16-0.69,0.67-1.26,0.59c-0.57-0.1-0.81-0.31-0.96-0.51c-0.16-0.2-0.81-0.81-1.75-1.06c-0.94-0.28-2.22,0.04-2.85,0.69c-0.67,0.63-1.55,2.16-1.49,3.91c0.04,1.71,1,2.3,1,2.3c0.37,0.37,1.44,0.75,1.97,0.81c0.51,0.06,0.53-0.31,0.59-0.67c0.04-0.35-0.12-0.35-0.12-0.35s-0.35-0.04-0.81-0.35c-0.63-0.43-0.51-1.49-0.43-1.91c0.06-0.43,0.22-1.44,0.69-1.85c0.47-0.37,0.94-0.31,1.87-0.16c2.01,0.35,3.48,0.75,3.48,0.75S62.11,37.28,61.84,39.26 M96.31,28.49v-1.85c0-0.12,0.06-0.2,0.2-0.2h0.75c0.47,0,0.75,0.2,0.75,0.59c0,0.22-0.12,0.37-0.37,0.47c0.31,0.06,0.47,0.28,0.47,0.53c0,0.43-0.28,0.63-0.81,0.63h-0.75C96.37,28.68,96.31,28.58,96.31,28.49z M97.17,27.42c0.28,0,0.37-0.12,0.37-0.35c0-0.22-0.12-0.35-0.43-0.35h-0.53v0.67h0.59V27.42L97.17,27.42z M97.21,28.37c0.35,0,0.47-0.12,0.47-0.35c0-0.22-0.16-0.35-0.47-0.35h-0.53v0.69h0.53V28.37z M100.06,28.52c0,0.04-0.04,0.16-0.2,0.16c-0.06,0-0.16-0.04-0.22-0.16l-0.63-0.75h-0.22v0.69c0,0.06-0.04,0.16-0.16,0.16h-0.04c-0.06,0-0.16-0.06-0.16-0.2v-1.85c0-0.12,0.06-0.2,0.2-0.2h0.63c0.53,0,0.81,0.22,0.81,0.67c0,0.37-0.22,0.63-0.67,0.67L100.06,28.52z M99.24,27.48c0.31,0,0.47-0.16,0.47-0.37c0-0.28-0.16-0.37-0.51-0.37h-0.47v0.79h0.51V27.48z M100.81,28.01l-0.2,0.51c-0.04,0.12-0.12,0.16-0.2,0.16c-0.12,0-0.2-0.06-0.2-0.12l0.79-2.03c0.04-0.06,0.06-0.12,0.22-0.12s0.22,0.04,0.22,0.12l0.79,2.03c0,0.04-0.06,0.12-0.2,0.12c-0.06,0-0.16-0.04-0.2-0.16l-0.2-0.51H100.81z M101.62,27.74l-0.35-0.94l-0.35,0.94H101.62z M102.62,28.52v-1.87c0-0.12,0.06-0.2,0.16-0.2h0.04c0.12,0,0.16,0.04,0.2,0.12l1.1,1.55V26.6c0-0.12,0.04-0.16,0.16-0.16h0.04c0.06,0,0.16,0.04,0.16,0.16v1.87c0,0.12-0.06,0.2-0.16,0.2h-0.04c-0.12,0-0.12-0.04-0.2-0.12l-1.16-1.65v1.55c0,0.12-0.04,0.16-0.16,0.16h-0.04C102.64,28.68,102.62,28.64,102.62,28.52z M104.9,28.49v-1.85c0-0.12,0.06-0.2,0.2-0.2h0.53c0.75,0,1.22,0.37,1.22,1.1c0,0.69-0.47,1.1-1.22,1.1h-0.51C105.02,28.68,104.9,28.54,104.9,28.49z M105.65,28.37c0.53,0,0.85-0.31,0.85-0.81s-0.31-0.79-0.85-0.79h-0.35v1.59H105.65z M109.4,33.09c-0.81,0-1.38-0.59-1.38-1.42c0-0.85,0.63-1.42,1.38-1.42s1.38,0.53,1.38,1.42S110.11,33.09,109.4,33.09z M109.4,30.51c-0.63,0-1.1,0.47-1.1,1.16c0,0.63,0.43,1.16,1.1,1.16c0.59,0,1.06-0.47,1.06-1.16C110.47,31.02,109.99,30.51,109.4,30.51z M109.09,32.46h-0.28V30.9h0.59c0.37,0,0.53,0.12,0.53,0.43c0,0.28-0.16,0.37-0.37,0.43l0.43,0.67h-0.28l-0.37-0.67h-0.22L109.09,32.46L109.09,32.46z M109.4,31.61c0.2,0,0.35,0,0.35-0.22c0-0.2-0.2-0.2-0.35-0.2h-0.31v0.47h0.31V31.61z"/>
<path fill="#63FF1F" d="M66.04,6.01c0,0,18.23-5.47,27.14,1.53s-9.22,14.69-40.96,3.13C52.22,10.61,63.35,6.89,66.04,6.01z"/>
<path fill="#26008A" d="M81.31,16.86c-7.42,0-17.4-1.66-29.17-5.95l-0.16-0.06v-0.17c0-0.2,0-0.3,14-4.9l0.01,0c0.05-0.01,4.65-1.38,10.28-1.87c5.22-0.45,12.42-0.22,17.08,3.44c2.19,1.72,2.89,3.59,1.96,5.25C93.92,15.08,88.97,16.86,81.31,16.86z M52.95,10.67c23.32,8.35,39.3,6.38,41.91,1.69c0.79-1.42,0.14-3.06-1.84-4.62c-8.67-6.81-26.58-1.59-26.91-1.49C63.79,7.01,55.32,9.84,52.95,10.67z"/>
</svg>
