<?xml version="1.0" encoding="utf-8"?>
<!-- Generator: Adobe Illustrator 16.0.0, SVG Export Plug-In . SVG Version: 6.00 Build 0)  -->
<svg version="1.2" baseProfile="tiny" id="Layer_1" xmlns="http://www.w3.org/2000/svg" xmlns:xlink="http://www.w3.org/1999/xlink"
	 x="0px" y="0px" width="256px" height="256px" viewBox="5 5 256 256" xml:space="preserve">
<g>
	<g id="Layer_2">
		<path fill="#FFFFFF" d="M132.93,16.917c63.15,0,114.348,51.885,114.348,115.89c0,64.002-51.198,115.889-114.348,115.889
			c-63.153,0-114.348-51.885-114.348-115.889C18.583,68.8,69.777,16.917,132.93,16.917z"/>
	</g>
	<g>
		<path fill="#CE0005" d="M239.373,133.014c0,58.662-47.722,106.368-106.37,106.368c-58.649,0-106.373-47.704-106.373-106.368
			c0-58.663,47.723-106.383,106.371-106.383C191.651,26.63,239.373,74.359,239.373,133.014z M133.001,10
			C65.178,10,10,65.185,10,133.014C10,200.838,65.178,256,133.001,256C200.826,256,256,200.838,256,133.014
			C256,65.185,200.826,10,133.001,10z"/>
	</g>
	<g>
		<g>
			<g>
				<path fill="#CE0005" d="M137.846,125.971c0.132,0.499-2.272-0.062-1.121-0.376l0,0c1.151-0.324,5.386-0.304,5.253-0.787
					l-23.232-36.123c-0.123-0.471-1.158-0.614-2.301-0.288l0,0c-1.127,0.288-1.973,0.944-1.808,1.471L137.846,125.971z"/>
				<path fill="#CE0005" d="M118.939,90.199c0.26-0.443-0.322-1.295-1.335-1.931l0,0c-1.005-0.611-2.049-0.751-2.314-0.313
					l-16.697,26.999c-0.265,0.42,0.33,1.285,1.34,1.914l0,0c1.012,0.62,2.048,0.757,2.313,0.332L118.939,90.199z"/>
				<path fill="#CE0005" d="M118.869,91.926c-1.036,1.269-2.903,1.478-4.208,0.468c-1.275-1.037-1.492-2.886-0.472-4.191
					c1.029-1.275,2.896-1.496,4.185-0.454C119.681,88.761,119.893,90.638,118.869,91.926z"/>
				<polygon fill="#CE0005" points="91.012,135.998 88.218,134.729 98.438,116.897 101.247,118.18 				"/>
				<polygon fill="#CE0005" points="83.234,148.17 81.945,147.584 88.286,136.221 89.582,136.814 				"/>
				<path fill="#CE0005" d="M90.881,136.977c-0.621,0.99-1.922,1.291-2.932,0.682c-1.019-0.633-1.317-1.938-0.699-2.902
					c0.624-1.021,1.929-1.352,2.954-0.709C91.185,134.668,91.499,135.969,90.881,136.977z"/>
				<path fill="#CE0005" d="M102.875,116.885c-0.717,1.107-2.16,1.442-3.27,0.781c-1.129-0.722-1.503-2.183-0.79-3.289
					c0.69-1.109,2.148-1.468,3.284-0.771C103.213,114.294,103.558,115.767,102.875,116.885z"/>
			</g>
			<path fill="#CE0005" d="M124.845,107.962c0,0-23.641-3.433-30.931,15.428c-7.317,18.884,3.002,38.188,4.713,40.334
				c1.726,2.151,13.75,1.721,21.072-4.27c7.289-6.021,14.173-16.308,14.607-20.163C134.715,135.432,148.037,116.113,124.845,107.962
				z"/>
			<g>
				<path fill="#CE0005" d="M123.749,130.688c0.34,0.548,1.66,0.353,2.93-0.387l0,0c1.291-0.757,2.05-1.824,1.696-2.361
					L85.53,96.603c-0.339-0.536-1.641-0.353-2.924,0.4l0,0c-1.277,0.764-2.03,1.819-1.67,2.348L123.749,130.688z"/>
				<path fill="#CE0005" d="M86.317,97.809c0.326-0.555-0.505-1.566-1.794-2.285l0,0c-1.303-0.7-2.643-0.835-2.961-0.284
					l-19.476,33.77c-0.337,0.549,0.487,1.574,1.788,2.278l0,0c1.307,0.701,2.63,0.845,2.948,0.308L86.317,97.809z"/>
				<path fill="#CE0005" d="M86.818,100.346c-0.801,1.871-3.012,2.75-4.955,1.974c-1.918-0.771-2.837-2.893-2.024-4.756
					c0.799-1.862,3.006-2.726,4.949-1.969C86.702,96.397,87.614,98.509,86.818,100.346z"/>
				<polygon fill="#CE0005" points="55.71,155.861 51.973,154.725 62.027,131.571 65.729,132.688 				"/>
				<polygon fill="#CE0005" points="49.849,171.629 47.759,171.321 51.903,155.7 54.012,156.002 				"/>
				<path fill="#CE0005" d="M55.205,156.821c-0.506,1.063-1.785,1.48-2.871,1.024c-1.097-0.472-1.548-1.712-1.083-2.737
					c0.504-1.063,1.788-1.51,2.873-1.036C55.223,154.545,55.698,155.772,55.205,156.821z"/>
				<path fill="#CE0005" d="M67.602,131.164c-0.807,1.413-2.643,1.919-4.108,1.128c-1.465-0.814-2.003-2.583-1.178-4
					c0.793-1.379,2.641-1.87,4.109-1.089C67.867,127.986,68.403,129.758,67.602,131.164z"/>
			</g>
			<g>
				<path fill="#CE0005" d="M145.738,121.533c-0.315,0.489-1.495,0.333-2.641-0.357l0,0c-1.121-0.66-1.795-1.597-1.506-2.092
					l38.233-27.967c0.321-0.475,1.49-0.321,2.622,0.363l0,0c1.139,0.672,1.828,1.608,1.505,2.096L145.738,121.533z"/>
				<path fill="#CE0005" d="M179.123,92.192c-0.265-0.487,0.439-1.407,1.62-2.042l0,0c1.161-0.623,2.354-0.741,2.639-0.241
					l17.379,30.14c0.289,0.482-0.415,1.394-1.589,2.024l0,0c-1.176,0.64-2.339,0.752-2.627,0.257L179.123,92.192z"/>
				<path fill="#CE0005" d="M178.701,94.455c0.71,1.665,2.697,2.443,4.41,1.747c1.723-0.667,2.542-2.58,1.822-4.228
					c-0.715-1.659-2.704-2.441-4.431-1.753C178.777,90.922,177.984,92.818,178.701,94.455z"/>
				<polygon fill="#CE0005" points="206.459,143.978 209.796,142.99 200.846,122.312 197.516,123.33 				"/>
				<polygon fill="#CE0005" points="211.675,158.073 213.58,157.784 209.863,143.869 207.966,144.122 				"/>
				<path fill="#CE0005" d="M206.929,144.881c0.422,0.917,1.556,1.338,2.531,0.893c0.987-0.409,1.402-1.511,0.978-2.433
					c-0.459-0.941-1.585-1.349-2.567-0.93C206.904,142.833,206.472,143.906,206.929,144.881z"/>
				<path fill="#CE0005" d="M195.842,121.953c0.725,1.265,2.363,1.715,3.67,0.991c1.313-0.7,1.795-2.279,1.065-3.537
					c-0.729-1.252-2.374-1.684-3.674-0.991C195.593,119.127,195.112,120.715,195.842,121.953z"/>
			</g>
			<g>
				<path fill="#CE0005" d="M122.664,138.435c0.289,0.493-2.407,0.639-1.295-0.06l0,0c1.106-0.661,5.6-1.928,5.308-2.387
					l-35.445-31.151c-0.306-0.488-1.442-0.313-2.547,0.377l0,0c-1.107,0.672-1.762,1.624-1.461,2.108L122.664,138.435z"/>
				<path fill="#CE0005" d="M92.034,105.638c0.212-0.521-0.559-1.351-1.773-1.838l0,0c-1.18-0.5-2.339-0.47-2.56,0.042
					l-13.373,32.182c-0.246,0.514,0.56,1.344,1.743,1.846l0,0c1.224,0.485,2.372,0.477,2.561-0.049L92.034,105.638z"/>
				<path fill="#CE0005" d="M92.316,108.228c-0.688,1.662-2.605,2.463-4.271,1.747c-1.672-0.672-2.449-2.602-1.769-4.275
					c0.689-1.665,2.615-2.441,4.268-1.764C92.234,104.637,92.995,106.544,92.316,108.228z"/>
				<polygon fill="#CE0005" points="69.761,160.159 66.494,159.291 74.481,138.166 77.726,139.062 				"/>
				<polygon fill="#CE0005" points="58.82,172.894 57.518,171.954 66.671,160.987 67.937,161.905 				"/>
				
					<rect x="121.046" y="129.399" transform="matrix(0.631 -0.7758 0.7758 0.631 -55.8977 146.5725)" fill="#CE0005" width="10.175" height="5.299"/>
				<path fill="#CE0005" d="M123.028,132.034c2.073,0,3.756,1.681,3.756,3.759c0,2.076-1.684,3.752-3.756,3.752
					c-2.076,0-3.759-1.676-3.759-3.752C119.269,133.716,120.955,132.034,123.028,132.034z"/>
				<path fill="#CE0005" d="M69.786,161.242c-0.511,1.205-1.873,1.746-3.079,1.271c-1.183-0.501-1.75-1.885-1.271-3.066
					c0.518-1.169,1.876-1.764,3.072-1.253C69.702,158.683,70.273,160.062,69.786,161.242z"/>
				<path fill="#CE0005" d="M79.267,137.361c-0.546,1.352-2.066,1.967-3.411,1.413c-1.357-0.544-1.979-2.075-1.437-3.413
					c0.57-1.336,2.093-1.971,3.418-1.414C79.197,134.502,79.815,136.037,79.267,137.361z"/>
			</g>
			<path fill="#CE0005" d="M153.894,130.332c-0.374,0.422,2.277,0.945,1.275,0.115l0,0c-0.987-0.824-5.265-2.7-4.891-3.124
				l39.504-25.805c0.375-0.431,1.469-0.111,2.458,0.711l0,0c1.023,0.856,1.517,1.874,1.169,2.3L153.894,130.332z"/>
			<path fill="#CE0005" d="M188.857,102.188c-0.133-0.564,0.772-1.242,2.013-1.564l0,0c1.27-0.34,2.384-0.159,2.536,0.383
				l8.694,33.774c0.131,0.541-0.772,1.24-2.024,1.56l0,0c-1.256,0.338-2.375,0.146-2.538-0.392L188.857,102.188z"/>
			<path fill="#CE0005" d="M188.218,104.694c0.46,1.769,2.219,2.821,3.976,2.369c1.753-0.449,2.82-2.237,2.349-3.978
				c-0.421-1.738-2.234-2.813-3.97-2.375C188.814,101.16,187.741,102.953,188.218,104.694z"/>
			<polygon fill="#CE0005" points="203.16,159.326 206.524,158.91 201.607,136.857 198.26,137.279 			"/>
			<polygon fill="#CE0005" points="202.555,169.594 204.397,169.519 206.724,159.463 204.881,159.484 			"/>
			
				<rect x="146.269" y="120.837" transform="matrix(-0.5154 -0.857 0.857 -0.5154 123.5366 316.8405)" fill="#CE0005" width="10.171" height="5.307"/>
			<path fill="#CE0005" d="M153.906,123.877c2.072,0,3.759,1.688,3.759,3.763c0,2.078-1.687,3.764-3.759,3.764
				c-2.084,0-3.769-1.685-3.769-3.764C150.134,125.565,151.821,123.877,153.906,123.877z"/>
			<path fill="#CE0005" d="M203.002,160.374c0.312,1.255,1.59,2.015,2.844,1.682c1.276-0.312,2-1.591,1.696-2.857
				c-0.33-1.24-1.594-1.993-2.845-1.682C203.435,157.846,202.671,159.135,203.002,160.374z"/>
			<circle fill="#CE0005" cx="199.521" cy="134.76" r="2.623"/>
			<path fill="#CE0005" d="M143.906,101.523c11.559,0,20.937,8.489,20.937,18.959c0,10.469-9.375,18.953-20.937,18.953
				c-11.566,0-20.939-8.484-20.939-18.953C122.967,110.013,132.339,101.523,143.906,101.523z"/>
			<g>
				<path fill="#CE0005" d="M132.718,124.544c0-0.567-1.079-0.998-2.377-0.967l0,0c-1.302,0.047-2.332,0.522-2.312,1.095
					l0.821,34.834c0.035,0.579,1.091,0.988,2.384,0.964l0,0c1.31-0.048,2.365-0.506,2.32-1.083L132.718,124.544z"/>
				<path fill="#CE0005" d="M134.299,123.17c0.028,1.795-1.415,3.299-3.21,3.337c-1.807,0.042-3.312-1.382-3.343-3.207
					c-0.049-1.791,1.382-3.283,3.189-3.331C132.742,119.919,134.262,121.369,134.299,123.17z"/>
				<path fill="#CE0005" d="M132.779,149c-0.118-0.545-1.249-0.812-2.515-0.572l0,0c-1.277,0.26-2.221,0.898-2.11,1.452l6.65,34.216
					c0.1,0.545,1.212,0.803,2.505,0.545l0,0c1.259-0.23,2.198-0.895,2.108-1.423L132.779,149z"/>
				<path fill="#CE0005" d="M134.415,150.995c0.364,1.752-0.794,3.489-2.567,3.82c-1.788,0.343-3.497-0.801-3.855-2.586
					c-0.333-1.77,0.827-3.468,2.588-3.844C132.348,148.063,134.083,149.225,134.415,150.995z"/>
				<path fill="#CE0005" d="M139.676,182.482c0.283,1.416-0.662,2.783-2.055,3.062c-1.426,0.287-2.812-0.641-3.09-2.084
					c-0.264-1.405,0.653-2.772,2.066-3.049C138.024,180.135,139.411,181.062,139.676,182.482z"/>
				
					<rect x="137.456" y="185.146" transform="matrix(0.9508 -0.3098 0.3098 0.9508 -51.7715 52.3013)" fill="#CE0005" width="2.683" height="8.038"/>
			</g>
			<path fill="#CE0005" d="M184.785,123.625c2.945-6.106,3.385-14.97,0.614-23.873c-4.361-13.993-12.848-16.294-21.607-13.126
				c-8.752,3.151-14.439,10.587-10.102,24.584c2.757,8.79,7.963,15.53,13.627,18.534c0.147,1.614,0.661,3.498,1.516,5.428
				c1.908,4.369,4.813,7.201,6.524,6.33c1.693-0.875,1.523-5.078-0.38-9.444c-0.103-0.224-0.205-0.435-0.28-0.647
				c0.9-0.069,1.821-0.254,2.726-0.6c0.892-0.319,1.686-0.724,2.469-1.253c0.026,0.409,0.08,0.827,0.134,1.253
				c0.71,4.761,2.764,8.351,4.638,8.05c1.831-0.319,2.76-4.43,2.078-9.211C186.375,127.222,185.652,125.066,184.785,123.625z"/>
			<path fill="#CE0005" d="M158.677,101.222c0.476-3.546,2.429-6.21,4.367-5.955c1.936,0.26,3.127,3.341,2.658,6.889
				c-0.47,3.544-2.421,6.209-4.361,5.951C159.399,107.852,158.206,104.767,158.677,101.222z"/>
			<g>
				<path fill="#CE0005" d="M167.376,109.647c0.47,0.098,0.891-0.328,0.95-0.921l0,0c0.049-0.612-0.288-1.17-0.747-1.282
					l-28.392-5.734c-0.438-0.086-0.874,0.333-0.921,0.931l0,0c-0.06,0.618,0.266,1.184,0.746,1.289L167.376,109.647z"/>
				<path fill="#CE0005" d="M168.43,110.623c-1.481-0.289-2.623-1.22-2.544-2.085c0.081-0.847,1.341-1.29,2.802-0.988
					c1.47,0.31,2.596,1.208,2.538,2.085C171.16,110.477,169.893,110.923,168.43,110.623z"/>
				<path fill="#CE0005" d="M139.521,104.199c-1.175-0.233-2.073-0.981-2.025-1.646c0.06-0.679,1.071-1.042,2.234-0.821
					c1.17,0.263,2.078,0.988,2.029,1.677C141.703,104.102,140.683,104.454,139.521,104.199z"/>
				<polygon fill="#CE0005" points="131.23,102.382 131.064,101.088 137.623,101.923 137.75,103.22 				"/>
			</g>
			<g>
				<path fill="#CE0005" d="M183.624,108.02c-0.129,0.188-0.527-0.184-0.897-0.857l0,0c-0.392-0.648-0.61-1.338-0.495-1.542
					l7.228-12.032c0.122-0.207,0.519,0.176,0.902,0.83l0,0c0.387,0.665,0.616,1.371,0.472,1.566L183.624,108.02z"/>
				<path fill="#CE0005" d="M183.808,109.303c0.375-0.64,0.241-1.896-0.265-2.806c-0.554-0.908-1.289-1.149-1.664-0.531
					c-0.384,0.642-0.25,1.899,0.279,2.786C182.702,109.676,183.447,109.899,183.808,109.303z"/>
				<path fill="#CE0005" d="M190.833,96.397c0.295-0.511,0.191-1.473-0.235-2.231c-0.403-0.737-1.011-0.932-1.305-0.43
					c-0.29,0.505-0.204,1.508,0.24,2.25C189.94,96.703,190.544,96.902,190.833,96.397z"/>
				<polygon fill="#CE0005" points="192.861,92.711 192.14,91.232 190.194,93.498 190.892,94.96 				"/>
			</g>
		</g>
	</g>
</g>
</svg>
