<svg version="1.2" baseProfile="tiny" xmlns="http://www.w3.org/2000/svg" width="219.117" height="39.882" viewBox="0 0 219.117 39.882"><g fill="#CE0005"><path d="M66.587 19.171c.944-1.255 1.415-2.812 1.415-4.675 0-1.375-.266-2.51-.798-3.409-.522-.893-1.26-1.636-2.193-2.224-.839-.522-1.777-.884-2.822-1.087-1.039-.201-2.344-.304-3.91-.304h-7.249v25.818h3.444v-10.264h4.833l8.659 10.265h4.458l-9.719-11.286c1.648-.635 2.938-1.581 3.882-2.834zm-8.619.964h-3.494v-9.71h4.066c.929 0 1.736.065 2.419.201.692.13 1.285.363 1.782.697.602.392 1.039.871 1.3 1.446.262.567.392 1.225.392 1.958 0 .969-.125 1.767-.376 2.395-.246.628-.638 1.186-1.16 1.667-.567.522-1.26.873-2.073 1.064-.814.186-1.767.282-2.856.282zM80.717 20.692v12.599h17.028v-3.076h-13.589v-9.523h10.636v-3.078h-10.636v-7.066h13.589v-3.075h-17.028v10.141"/><path d="M124.389 9.521c-1.023-.638-2.283-1.136-3.769-1.502-1.486-.366-3.49-.547-6.015-.547h-6.45v25.818h6.525c2.364 0 4.277-.16 5.728-.484 1.451-.323 2.767-.851 3.946-1.576 1.701-1.057 3.066-2.532 4.091-4.439 1.024-1.908 1.531-4.031 1.531-6.381 0-2.507-.492-4.676-1.472-6.501-.988-1.83-2.348-3.289-4.115-4.388zm1.054 15.865c-.638 1.34-1.602 2.419-2.886 3.24-1.035.66-2.17 1.112-3.394 1.353-1.24.241-2.681.363-4.338.363h-3.228v-19.917h3.228c1.597 0 2.972.113 4.122.339 1.144.224 2.229.625 3.242 1.202 1.4.799 2.455 1.888 3.163 3.279.707 1.385 1.059 3.093 1.059 5.115.001 2.008-.32 3.685-.968 5.026zM185.158 28.558l-11.164-21.085h-5.315v25.818h3.198v-23.092l12.237 23.092h4.238v-25.818h-3.194zM197.231 7.473v3.075h9.221v22.743h3.444v-22.743h9.221v-3.075zM156.521 27.037l-9.417-25.825h-.026l-2.278 6.261h-.021l-9.412 25.818h3.464l2.204-6.254.105-.307.231-.626.101-.264.868-2.443.085-.246 4.548-12.696 4.538 12.696 3.604 10.14h3.669l-2.223-6.163zM151.511 23.151l-4.538-12.696"/></g><path fill="#CE0005" d="M37.184 19.942c0 9.508-7.736 17.243-17.244 17.243s-17.244-7.735-17.244-17.243c0-9.51 7.736-17.246 17.244-17.246s17.244 7.737 17.244 17.246zm-17.244-19.942c-10.995 0-19.94 8.946-19.94 19.942 0 10.995 8.945 19.939 19.94 19.939s19.94-8.944 19.94-19.939c0-10.996-8.945-19.942-19.94-19.942z"/><g fill="#CE0005"><path d="M20.725 18.8c.022.081-.368-.01-.182-.061.187-.052.873-.049.852-.127l-3.766-5.856c-.02-.077-.188-.1-.373-.047-.183.047-.32.153-.293.238l3.762 5.853zM17.66 13.001c.042-.072-.052-.21-.216-.313-.163-.099-.332-.122-.375-.051l-2.707 4.377c-.043.068.053.208.217.31.164.101.332.123.375.054l2.706-4.377zM17.649 13.281c-.168.206-.471.24-.682.076-.207-.168-.242-.468-.077-.679.167-.207.47-.243.679-.074.212.164.246.468.08.677zM13.133 20.426l-.453-.206 1.657-2.891.455.208zM11.872 22.399l-.209-.095 1.028-1.842.21.096zM13.112 20.585c-.101.16-.312.21-.476.111-.165-.102-.213-.314-.113-.471.101-.166.313-.219.479-.115.159.1.21.311.11.475zM15.056 17.327c-.116.18-.35.234-.53.127-.183-.117-.244-.354-.128-.533.112-.18.348-.238.532-.125.181.111.237.35.126.531zM18.617 15.881s-3.832-.557-5.014 2.501c-1.186 3.061.487 6.19.764 6.538.28.348 2.229.279 3.416-.693 1.182-.975 2.298-2.644 2.368-3.268.067-.625 2.227-3.757-1.534-5.078zM18.44 19.565c.055.089.269.057.475-.063.209-.123.332-.296.275-.383l-6.946-5.08c-.055-.087-.266-.057-.474.065-.207.124-.329.295-.271.381l6.941 5.08zM12.372 14.235c.053-.09-.082-.254-.291-.371-.211-.113-.428-.135-.48-.046l-3.157 5.475c-.055.089.079.255.29.369.212.114.426.137.478.05l3.16-5.477zM12.453 14.646c-.13.303-.488.446-.803.32-.311-.125-.46-.469-.328-.771.129-.302.487-.442.802-.319.31.13.458.472.329.77zM7.41 23.646l-.606-.184 1.63-3.754.6.181zM6.46 26.201l-.339-.049.672-2.533.342.051zM7.328 23.803c-.082.171-.289.24-.465.166-.178-.078-.251-.279-.176-.445.082-.173.29-.245.466-.168.178.076.255.276.175.447zM9.338 19.642c-.131.229-.429.311-.666.183-.238-.132-.325-.419-.191-.648.129-.224.428-.304.666-.177.234.127.321.414.191.642zM22.004 18.081c-.051.079-.242.054-.427-.058-.182-.107-.292-.259-.245-.339l6.199-4.534c.051-.077.241-.052.425.059.184.109.296.261.243.34l-6.195 4.532zM27.417 13.324c-.043-.079.071-.228.262-.331.188-.101.382-.12.428-.039l2.818 4.886c.046.078-.068.226-.259.328-.19.104-.379.122-.425.042l-2.824-4.886zM27.348 13.691c.115.27.438.396.715.283.279-.108.412-.418.296-.685-.116-.269-.438-.396-.719-.284-.279.113-.408.421-.292.686zM31.848 21.72l.541-.161-1.451-3.352-.54.165zM32.694 24.005l.308-.046-.602-2.259-.308.042zM31.925 21.865c.067.149.251.217.409.145.161-.067.228-.246.158-.396-.073-.152-.256-.217-.415-.149-.157.067-.227.243-.152.4zM30.128 18.149c.117.205.382.278.594.16.213-.113.291-.369.173-.573-.118-.203-.385-.273-.596-.161-.213.116-.291.373-.171.574zM18.264 20.821c.047.08-.39.102-.21-.01.18-.109.908-.312.861-.387l-5.746-5.05c-.05-.079-.234-.051-.413.061-.18.109-.286.263-.237.342l5.745 5.044zM13.299 15.504c.034-.084-.091-.219-.288-.298-.191-.081-.379-.076-.415.007l-2.168 5.217c-.04.083.091.218.283.299.198.079.384.077.415-.008l2.173-5.217zM13.344 15.924c-.111.269-.422.399-.692.283-.271-.109-.397-.422-.287-.693.112-.27.424-.396.692-.286.274.114.397.423.287.696zM9.688 24.344l-.53-.144 1.295-3.423.526.146zM7.914 26.405l-.211-.149 1.484-1.779.205.148zM17.973 20.154l1.041-1.28.666.542-1.041 1.28z"/><circle cx="18.323" cy="20.392" r=".609"/><path d="M9.692 24.518c-.083.196-.304.284-.499.206-.192-.081-.284-.304-.206-.497.084-.191.304-.286.498-.203.193.079.286.301.207.494zM11.229 20.647c-.089.217-.335.319-.553.229-.22-.088-.321-.335-.233-.554.092-.216.339-.319.554-.229.221.09.321.339.232.554zM23.326 19.507c-.06.068.37.153.208.019-.16-.134-.854-.438-.793-.507l6.404-4.183c.06-.07.238-.018.399.115.165.139.245.304.189.373l-6.407 4.183zM28.995 14.945c-.022-.092.124-.202.326-.254.206-.055.387-.026.411.062l1.409 5.475c.022.088-.125.201-.328.253-.203.054-.385.025-.411-.064l-1.407-5.472zM28.891 15.351c.075.287.36.457.645.384.284-.073.457-.363.381-.645-.069-.282-.363-.456-.644-.385-.285.073-.459.364-.382.646zM31.313 24.208l.546-.068-.797-3.575-.543.069zM31.216 25.87l.298-.01.377-1.63-.298.003zM22.973 19.327l-.849-1.414.737-.443.849 1.414z"/><circle cx="23.328" cy="19.071" r=".61"/><path d="M31.287 24.378c.051.204.258.327.462.273.206-.051.324-.258.275-.463-.054-.201-.259-.323-.462-.272-.204.053-.328.262-.275.462z"/><circle cx="30.723" cy="20.225" r=".425"/><ellipse cx="21.707" cy="17.91" rx="3.394" ry="3.073"/><path d="M19.894 18.569c0-.092-.175-.162-.385-.157-.211.008-.378.085-.375.178l.133 5.647c.006.093.177.16.387.156.212-.007.383-.082.376-.174l-.136-5.65zM20.15 18.346c.005.291-.229.535-.52.541-.293.007-.537-.224-.542-.52-.008-.29.224-.532.517-.54s.539.227.545.519zM19.904 22.533c-.019-.088-.203-.131-.408-.092-.207.042-.36.147-.342.237l1.078 5.545c.016.089.196.13.406.089.205-.038.356-.146.342-.233l-1.076-5.546zM20.169 22.857c.059.284-.129.566-.416.619-.29.055-.567-.13-.625-.419-.054-.287.134-.564.42-.623.286-.052.567.136.621.423zM21.022 27.962c.046.23-.107.452-.333.496-.232.047-.456-.104-.501-.337-.043-.228.106-.45.335-.494.232-.047.456.104.499.335zM20.471 28.492l.414-.134.401 1.239-.414.134zM28.334 18.42c.478-.99.55-2.427.1-3.87-.707-2.269-2.083-2.642-3.503-2.128-1.419.511-2.34 1.716-1.637 3.985.446 1.425 1.29 2.518 2.208 3.005.025.262.108.567.247.88.309.709.78 1.166 1.057 1.026.274-.14.247-.825-.061-1.531l-.046-.105c.146-.011.296-.041.442-.097.144-.052.274-.117.4-.203l.022.203c.115.772.448 1.354.752 1.305.297-.05.447-.718.337-1.493-.059-.394-.177-.743-.318-.977z"/><ellipse transform="matrix(.991 .132 -.132 .991 2.177 -3.125)" cx="24.671" cy="14.866" rx=".574" ry="1.05"/><path d="M25.512 16.154c.077.016.145-.053.154-.149.008-.1-.046-.19-.121-.208l-4.602-.93c-.071-.014-.142.054-.15.151-.009.1.044.192.121.209l4.598.927zM25.683 16.312c-.24-.047-.425-.198-.412-.338.012-.137.217-.209.454-.16.238.05.421.196.411.338-.011.136-.216.209-.453.16zM20.997 15.271c-.191-.038-.336-.159-.328-.267.009-.11.174-.169.362-.133.189.043.337.16.329.272-.01.112-.175.169-.363.128zM19.653 14.976l-.027-.21 1.063.136.021.21zM28.146 15.89c-.02.031-.085-.03-.146-.139-.063-.105-.098-.217-.079-.25l1.171-1.95c.02-.034.084.028.147.134.063.108.099.222.076.254l-1.169 1.951zM28.177 16.098c.06-.104.039-.307-.044-.455-.09-.147-.208-.186-.269-.086-.063.104-.041.308.045.452.087.149.208.186.268.089zM29.315 14.006c.048-.083.031-.239-.038-.362-.066-.119-.164-.151-.212-.07-.047.082-.033.245.039.365.066.116.164.149.211.067zM29.644 13.408l-.117-.239-.316.367.114.237z"/></g></svg>