<?xml version="1.0" encoding="utf-8"?>
<svg version="1.1" id="Layer_1" xmlns="http://www.w3.org/2000/svg" xmlns:xlink="http://www.w3.org/1999/xlink" x="0px" y="0px" width="120px" height="46.63px" viewBox="0 0 120 46.63" enable-background="new 0 0 120 46.63" xml:space="preserve">
<path fill="#FF0000" d="M95.09,18.22v1.6c-1.66-1.03-3.94-1.6-6.76-1.6H68.24l-3.45,16.85l-4.48-16.85h-7.04l-4.48,16.77l-3.41-16.77h-8.83l0.63,2.38c-1.93-1.88-4.82-2.89-8.26-2.89c-5.46,0-9.22,2.89-11.65,7.08l6.32,3.37c1.06-2.47,2.82-3.59,4.56-3.59c1.79,0,3.16,1.24,3.16,3.03c0,3.13-2.69,5.89-11.39,12.16h-4.64V18.22H9.34c-2,1.79-4.82,2.82-9.34,3.54l0.94,5.93c2.18-0.21,4.65-0.68,6.4-1.24v13.31H0.77v6.86h39.6v-6.86H29.51l0.64-0.36c5.49-3.09,8.47-6.62,9.33-10.1l4.58,17.32h8.66l4.01-15.56l3.96,15.56h8.65l0.01-0.04h-0.03l6.62-23.81h1.92l-3.8,13.65v10.19h15.01c6.27,0,10.11-3.16,10.11-8.36c0-2.9-1.58-5.29-4.56-6.44c2.39-1.28,3.67-3.63,3.67-6.06c0-0.13,0-0.26-0.01-0.39h5.2v21.25h8.07V25.38H120v-7.16H95.09z M82.18,25.09h5.45c1.5,0,2.56,0.54,2.56,1.92c0,1.36-1.07,2-2.56,2h-5.45V25.09z M88.41,39.77h-6.22v-4.49h6.22c1.49,0,2.56,0.86,2.56,2.27C90.96,38.95,89.9,39.77,88.41,39.77z"/>
<path fill="#FF0000" d="M9.95,10.85V2.2l-3.3,8.64H5.42L2.09,2.2v8.64H0.73V0.73h2.13l3.2,8.34l3.21-8.34h2.08v10.12H9.95z M12.68,1.4V0H14v1.4H12.68z M12.68,10.85v-7.9H14v7.9H12.68z M22.16,9.37c-0.67,0.96-1.73,1.65-3.19,1.65c-2.34,0-3.83-1.78-3.83-4.13c0-2.36,1.49-4.13,3.83-4.13c1.4,0,2.46,0.65,3.14,1.64L21.13,5.2c-0.47-0.76-1.17-1.23-2.11-1.23c-1.54,0-2.48,1.26-2.48,2.93c0,1.69,0.96,2.93,2.46,2.93c1,0,1.69-0.5,2.14-1.19L22.16,9.37z M23.02,10.85V0h1.32v4.25c0.65-0.96,1.55-1.49,2.7-1.49c1.7,0,2.76,1.11,2.76,2.99v5.09h-1.32V6.06c0-0.94-0.29-2.05-1.76-2.05c-1.35,0-2.39,0.99-2.39,2.46v4.37H23.02z M38.46,7.22h-6.2c0.08,1.64,1.11,2.6,2.66,2.6c0.94,0,1.72-0.36,2.34-1.03l0.88,0.86c-0.8,0.87-1.85,1.38-3.25,1.38c-2.57,0-4.04-1.76-4.04-4.1c0-2.32,1.46-4.16,3.87-4.16c2.32,0,3.77,1.73,3.77,3.93C38.49,6.94,38.48,7.11,38.46,7.22z M37.13,6.2c-0.14-1.52-1.17-2.29-2.41-2.29c-1.38,0-2.31,0.96-2.42,2.29H37.13z M39.59,10.85V0h1.32v10.85H39.59z M42.52,10.85V0h1.32v10.85H42.52z M52.59,7.22h-6.2c0.08,1.64,1.11,2.6,2.66,2.6c0.94,0,1.72-0.36,2.34-1.03l0.88,0.86c-0.8,0.87-1.85,1.38-3.25,1.38c-2.56,0-4.04-1.76-4.04-4.1c0-2.32,1.46-4.16,3.87-4.16c2.32,0,3.77,1.73,3.77,3.93C52.62,6.94,52.61,7.11,52.59,7.22z M51.25,6.2c-0.14-1.52-1.17-2.29-2.41-2.29c-1.38,0-2.31,0.96-2.41,2.29H51.25z M61.57,10.85h-4.57V0.73h4.24c2.08,0,3.27,0.9,3.27,2.43c0,1-0.53,1.76-1.32,2.19c1.16,0.47,1.75,1.43,1.75,2.6C64.92,9.57,63.82,10.85,61.57,10.85z M61.19,2.02h-2.76v2.89h2.84c1.16,0,1.81-0.61,1.81-1.55C63.07,2.43,62.43,2.02,61.19,2.02z M61.58,6.14h-3.16v3.43h3.1c1.23,0,1.91-0.64,1.91-1.7C63.44,6.87,62.84,6.14,61.58,6.14z M70.48,4.34c-0.26-0.13-0.55-0.24-0.91-0.24c-1.05,0-2.03,0.93-2.03,2.63v4.12h-1.32v-7.9h1.32v1.34c0.53-0.85,1.32-1.49,2.29-1.49c0.46,0,0.85,0.14,1.08,0.29L70.48,4.34z M71.66,1.4V0h1.32v1.4H71.66z M71.66,10.85v-7.9h1.32v7.9H71.66z M80.57,10.85V9.56c-0.74,1.06-1.75,1.47-2.81,1.47c-2.25,0-3.63-1.79-3.63-4.11c0-2.35,1.38-4.15,3.63-4.15c1.08,0,2.07,0.43,2.81,1.49V0h1.32v10.85H80.57z M78,4c-1.66,0-2.48,1.29-2.48,2.9c0,1.61,0.81,2.92,2.48,2.92c1.69,0,2.57-1.31,2.57-2.92C80.57,5.27,79.67,4,78,4z M90.79,9.57c0,1.2-0.21,2.13-0.85,2.84c-0.78,0.9-1.99,1.23-3.33,1.23c-1.31,0-2.39-0.32-3.3-0.94l0.67-1.08c0.7,0.5,1.6,0.82,2.64,0.82c1.61,0,2.84-0.74,2.84-2.6V8.99c-0.64,1-1.76,1.47-2.88,1.47c-2.11,0-3.57-1.63-3.57-3.83c0-2.23,1.52-3.87,3.63-3.87c1.14,0,2.19,0.47,2.82,1.49V2.95h1.32V9.57z M86.91,3.98c-1.69,0-2.49,1.2-2.49,2.63c0,1.46,0.82,2.67,2.49,2.67c1.66,0,2.58-1.2,2.58-2.67C89.49,5.15,88.59,3.98,86.91,3.98z M99.55,7.22h-6.2c0.08,1.64,1.11,2.6,2.66,2.6c0.94,0,1.72-0.36,2.34-1.03l0.88,0.86c-0.81,0.87-1.85,1.38-3.25,1.38c-2.57,0-4.04-1.76-4.04-4.1c0-2.32,1.46-4.16,3.87-4.16c2.32,0,3.77,1.73,3.77,3.93C99.58,6.94,99.56,7.11,99.55,7.22z M98.21,6.2C98.07,4.68,97.04,3.9,95.8,3.9c-1.38,0-2.31,0.96-2.42,2.29H98.21z M103.65,11.03c-1.55,0-2.78-0.61-3.49-1.68l0.97-0.73c0.61,0.84,1.52,1.28,2.6,1.28c1.06,0,1.84-0.43,1.84-1.28c0-0.8-0.71-0.96-2.17-1.23c-1.55-0.29-2.83-0.75-2.83-2.29c0-1.61,1.43-2.32,2.96-2.32c1.49,0,2.58,0.67,3.21,1.32l-0.88,0.83c-0.56-0.65-1.38-1.02-2.34-1.02c-0.83,0-1.67,0.31-1.67,1.06c0,0.81,0.9,0.99,1.96,1.19c1.58,0.3,3.08,0.67,3.08,2.35C106.88,10.01,105.68,11.03,103.65,11.03z"/>
</svg>
