<?xml version="1.0" encoding="utf-8"?>
<svg version="1.1" id="Layer_1" xmlns="http://www.w3.org/2000/svg" xmlns:xlink="http://www.w3.org/1999/xlink" x="0px" y="0px" width="120px" height="64.87px" viewBox="0 0 120 64.87" enable-background="new 0 0 120 64.87" xml:space="preserve">
<path id="white_side" fill="#5365AF" d="M90.59,41.76c-0.46,0-0.85-0.36-0.85-0.85v-7.94c0-2.55-0.77-3.92-3.25-3.92c-2.37,0-3.51,2.04-3.51,3.95v7.91c0,0.46-0.39,0.85-0.85,0.85c-0.49,0-0.85-0.39-0.85-0.85V28.38c0-0.49,0.36-0.85,0.85-0.85c0.46,0,0.85,0.36,0.85,0.82v0.88c0.85-1.08,1.78-1.88,3.51-1.88c3.53,0,4.95,1.68,4.95,6.01v7.58C91.44,41.4,91.08,41.76,90.59,41.76 M104.35,28.66c0.18,1.65,0.18,5.1,0,7.53c-0.15,2.37-1.47,3.79-3.69,3.79h-3.84V24.82h3.79C102.85,24.82,104.07,26.06,104.35,28.66 M100.66,41.68c3.17,0,5.08-1.7,5.39-5.9c0.13-1.73,0.15-4.05,0-6.73c-0.28-4.33-2.37-5.93-5.44-5.93h-4.64c-0.49,0-0.85,0.39-0.85,0.85v16.86c0,0.49,0.36,0.85,0.85,0.85H100.66 M118.22,36.45c0,2.4-1.57,3.71-3.79,3.71c-2.24,0-3.82-1.31-3.82-3.71v-3.56c0-2.4,1.57-3.84,3.82-3.84c2.22,0,3.79,1.44,3.79,3.84V36.45z M114.43,41.86c3.07,0,5.57-1.93,5.57-5.83v-2.76c0-3.89-2.5-5.93-5.57-5.93c-3.07,0-5.57,2.04-5.57,5.93v2.76C108.86,39.93,111.36,41.86,114.43,41.86 M56.61,28.66c0-2.39-1.57-3.84-3.78-3.84c0,0-0.01,0-0.01,0c0,0-0.01,0-0.01,0c-0.27,0-3.17,0-3.68,0v9.82h3.72c2.2-0.01,3.76-1.33,3.76-3.71V28.66z M56.94,24.82c0.9,0.99,1.44,2.4,1.44,4.23v1.47c0,1.79-0.53,3.16-1.4,4.13c-1.02,1.13-2.51,1.7-4.17,1.7h-3.68v4.59c-0.08,0.46-0.46,0.82-0.93,0.82c-0.49,0-0.85-0.36-0.85-0.82V23.97c0-0.46,0.36-0.85,0.85-0.85h4.61C54.45,23.12,55.92,23.69,56.94,24.82 M64.23,40.7c-0.1-0.36-0.6-0.83-0.86-1.26c-0.28-0.47-0.38-0.93-0.38-1.83V23.94c0-0.46-0.36-0.83-0.83-0.83c-0.46,0-0.88,0.36-0.88,0.85v13.46c0,1.43,0.19,2.05,0.48,2.65c0.29,0.61,0.95,1.47,1.36,1.62c0.37,0.13,0.69,0.03,0.88-0.16C64.2,41.34,64.33,41.07,64.23,40.7 M72.04,40.16c2.21,0,3.79-1.34,3.79-3.71v-3.56c0-0.82-0.18-1.53-0.51-2.1c-0.64-1.11-1.82-1.74-3.28-1.74c-2.24,0-3.82,1.44-3.82,3.84v3.56C68.23,38.84,69.83,40.16,72.04,40.16 M78.66,40.29c0.34,0.36,0.29,0.91-0.03,1.21c-0.21,0.2-0.58,0.36-0.95,0.15c-0.39-0.22-0.77-0.78-0.92-1.03c-0.2-0.32-0.47-0.9-0.47-0.9s-1.51,2.14-4.25,2.14c-3.07,0-5.57-1.93-5.57-5.83v-2.76c0-3.89,2.5-5.93,5.57-5.93c1.51,0,2.89,0.5,3.89,1.46c1.01,0.97,1.64,2.42,1.68,4.31v4.46C77.61,39.18,78.43,40.03,78.66,40.29 M27.68,0c-4.77,0-8.64,3.88-8.64,8.64v3.9c7.7,0.34,14.28,5.06,17.29,11.74V8.64C36.32,3.88,32.45,0,27.68,0 M17.29,50.58V14.3C7.68,14.75,0,22.71,0,32.44C0,42.16,7.68,50.12,17.29,50.58 M8.64,64.87c4.77,0,8.64-3.88,8.64-8.64v-3.9C9.59,51.99,3.01,47.26,0,40.59v15.64C0,61,3.88,64.87,8.64,64.87 M19.04,14.3v36.28c9.61-0.46,17.29-8.42,17.29-18.14C36.32,22.71,28.64,14.75,19.04,14.3"/>
</svg>
