<?xml version="1.0" encoding="utf-8"?>
<svg version="1.1" xmlns="http://www.w3.org/2000/svg" xmlns:xlink="http://www.w3.org/1999/xlink" x="0px" y="0px" width="1356px" height="600px" viewBox="0 0 1356 600" enable-background="new 0 0 1356 600" xml:space="preserve">
<g id="Layer_2" display="none">
	<rect display="inline" width="1356" height="600"/>
</g>
<g id="Axes">
	<g>
		<g>
			<g opacity="0.25">
				<path fill="#4040DF" d="M764.168,348.111c-0.305-0.526-0.85-0.819-1.414-0.819c-0.28,0-0.564,0.069-0.822,0.221L0,787.429v3.765L763.57,350.35C764.337,349.892,764.604,348.899,764.168,348.111z"/>
				<path fill="#4040DF" d="M848.91,397.038c-0.308-0.517-0.859-0.807-1.429-0.807c-0.277,0-0.551,0.065-0.807,0.209L0,885.27v3.774l848.312-489.768C849.097,398.822,849.368,397.826,848.91,397.038z"/>
				<path fill="#4040DF" d="M933.652,445.964c-0.293-0.511-0.841-0.8-1.402-0.8c-0.28,0-0.563,0.072-0.813,0.221L8.904,978h6.512l917.635-529.8C933.836,447.749,934.107,446.755,933.652,445.964z"/>
				<path fill="#4040DF" d="M1018.416,494.913c-0.308-0.526-0.857-0.825-1.42-0.825c-0.277,0-0.557,0.072-0.819,0.225L178.385,978h6.547l832.88-480.873C1018.599,496.672,1018.848,495.679,1018.416,494.913z"/>
				<path fill="#4040DF" d="M1103.154,543.836c-0.305-0.527-0.853-0.819-1.411-0.819c-0.274,0-0.554,0.069-0.807,0.221L347.915,978h6.515l748.123-431.944C1103.341,545.621,1103.609,544.627,1103.154,543.836z"/>
				<path fill="#4040DF" d="M1187.915,592.766c-0.305-0.529-0.853-0.822-1.414-0.822c-0.28,0-0.564,0.069-0.822,0.221L517.414,978h6.503l663.4-382.998C1188.083,594.547,1188.351,593.551,1187.915,592.766z"/>
				<path fill="#4040DF" d="M1272.657,641.693c-0.308-0.52-0.86-0.81-1.427-0.81c-0.271,0-0.542,0.065-0.791,0.209L686.904,978h6.518l578.636-334.071C1272.844,643.474,1273.114,642.477,1272.657,641.693z"/>
				<path fill="#4040DF" d="M1356,689.816c-0.277,0-0.557,0.071-0.819,0.221L856.413,978h6.525L1356,693.329V689.816z"/>
				<polygon fill="#4040DF" points="1356,787.414 1025.893,978 1032.437,978 1356,791.179"/>
				<polygon fill="#4040DF" points="1195.392,978 1201.926,978 1356,889.042 1356,885.276"/>
				<path fill="#4040DF" d="M679.408,201.334c-0.305-0.529-0.853-0.825-1.411-0.825c-0.274,0-0.551,0.075-0.807,0.224L0,591.695v3.778l678.807-391.924C679.598,203.094,679.862,202.1,679.408,201.334z"/>
				<path fill="#4040DF" d="M679.408,103.459c-0.305-0.527-0.853-0.813-1.411-0.813c-0.274,0-0.551,0.069-0.807,0.212L0,493.838v3.762l678.807-391.902C679.598,105.241,679.862,104.247,679.408,103.459z"/>
				<path fill="#4040DF" d="M679.408,5.606c-0.305-0.527-0.853-0.822-1.411-0.822c-0.274,0-0.551,0.071-0.807,0.221L0,395.966v3.781L678.807,7.823C679.598,7.387,679.862,6.372,679.408,5.606z"/>
				<path fill="#4040DF" d="M679.408-92.266c-0.305-0.52-0.859-0.81-1.426-0.81c-0.268,0-0.542,0.065-0.791,0.209L0,298.113v3.762L678.807-90.03C679.598-90.485,679.862-91.478,679.408-92.266z"/>
				<path fill="#4040DF" d="M679.408-190.12c-0.305-0.529-0.853-0.822-1.411-0.822c-0.274,0-0.551,0.072-0.807,0.221L0,200.26v3.762l678.807-391.905C679.598-188.338,679.862-189.332,679.408-190.12z"/>
				<path fill="#4040DF" d="M679.408-287.995c-0.305-0.511-0.85-0.8-1.408-0.8c-0.274,0-0.551,0.069-0.81,0.221L0,102.388v3.759l678.807-391.902C679.598-286.213,679.862-287.207,679.408-287.995z"/>
				<polygon fill="#4040DF" points="662.556,-378 0,4.531 0,8.297 669.087,-378"/>
				<polygon fill="#4040DF" points="493.063,-377.997 0,-93.341 0,-89.56 499.572,-377.997"/>
				<polygon fill="#4040DF" points="323.57,-377.997 0,-191.194 0,-187.432 330.076,-377.997"/>
				<polygon fill="#4040DF" points="154.068,-377.997 0,-289.047 0,-285.285 160.58,-377.997"/>
			</g>
			<g opacity="0.25">
				<path fill="#DF4040" d="M677.988,200.509c-0.563,0-1.112,0.296-1.417,0.825c-0.436,0.766-0.165,1.759,0.601,2.214L1356,595.475v-3.781L678.807,200.733C678.548,200.583,678.265,200.509,677.988,200.509z"/>
				<path fill="#DF4040" d="M677.988,102.646c-0.563,0-1.112,0.286-1.417,0.813c-0.436,0.788-0.165,1.781,0.601,2.239L1356,497.604v-3.762L678.807,102.858C678.548,102.715,678.265,102.646,677.988,102.646z"/>
				<path fill="#DF4040" d="M677.988,4.784c-0.563,0-1.112,0.296-1.417,0.822c-0.436,0.788-0.165,1.781,0.601,2.217L1356,399.747v-3.768L678.807,5.005C678.548,4.855,678.265,4.784,677.988,4.784z"/>
				<path fill="#DF4040" d="M677.982-93.07c-0.561,0-1.106,0.29-1.411,0.803c-0.436,0.788-0.165,1.781,0.601,2.236L1356,301.878v-3.762L678.807-92.849C678.548-92.998,678.265-93.07,677.982-93.07z"/>
				<path fill="#DF4040" d="M677.988-190.942c-0.563,0-1.112,0.293-1.417,0.822c-0.436,0.788-0.165,1.781,0.601,2.236L1356,204.022v-3.762l-677.193-390.98C678.548-190.87,678.265-190.942,677.988-190.942z"/>
				<path fill="#DF4040" d="M677.988-288.795c-0.563,0-1.112,0.296-1.417,0.822c-0.436,0.766-0.165,1.76,0.601,2.217l678.825,391.924v-3.781l-677.19-390.962C678.548-288.723,678.265-288.795,677.988-288.795z"/>
				<polygon fill="#DF4040" points="1355.997,4.544 693.441,-378 686.892,-378 1355.997,8.297"/>
				<polygon fill="#DF4040" points="1355.997,-93.341 862.937,-378 856.413,-378 1355.997,-89.56"/>
				<polygon fill="#DF4040" points="1355.997,-191.194 1032.427,-378 1025.912,-378 1355.997,-187.432"/>
				<polygon fill="#DF4040" points="1355.997,-289.047 1201.929,-378 1195.405,-378 1355.997,-285.285"/>
				<path fill="#DF4040" d="M594.065,347.513c-0.259-0.152-0.539-0.221-0.816-0.221c-0.567,0-1.115,0.293-1.42,0.819c-0.455,0.788-0.187,1.781,0.601,2.239L1356,791.194v-3.765L594.065,347.513z"/>
				<path fill="#DF4040" d="M508.507,396.231c-0.564,0-1.121,0.29-1.42,0.807c-0.455,0.788-0.184,1.785,0.579,2.239L1356,889.057v-3.784L509.305,396.44C509.055,396.296,508.781,396.231,508.507,396.231z"/>
				<path fill="#DF4040" d="M423.744,445.164c-0.567,0-1.112,0.29-1.417,0.8c-0.433,0.791-0.184,1.785,0.601,2.236l917.65,529.8h6.497L424.566,445.385C424.304,445.236,424.021,445.164,423.744,445.164z"/>
				<path fill="#DF4040" d="M338.999,494.087c-0.557,0-1.106,0.299-1.411,0.825c-0.454,0.766-0.187,1.76,0.601,2.215L1171.066,978h6.525L339.802,494.312C339.55,494.159,339.273,494.087,338.999,494.087z"/>
				<path fill="#DF4040" d="M254.244,543.017c-0.567,0-1.115,0.293-1.42,0.819c-0.436,0.769-0.165,1.784,0.604,2.22L1001.567,978h6.518L255.063,543.238C254.802,543.086,254.518,543.017,254.244,543.017z"/>
				<path fill="#DF4040" d="M169.503,591.944c-0.567,0-1.112,0.293-1.417,0.822c-0.458,0.785-0.19,1.781,0.601,2.215L832.065,978h6.518L170.322,592.165C170.063,592.012,169.78,591.944,169.503,591.944z"/>
				<path fill="#DF4040" d="M84.755,640.883c-0.57,0-1.118,0.29-1.411,0.81c-0.458,0.785-0.187,1.781,0.579,2.236L662.575,978h6.503L85.558,641.091C85.306,640.948,85.025,640.883,84.755,640.883z"/>
				<path fill="#DF4040" d="M0,689.816v3.513L493.051,978h6.54L0.816,690.037C0.558,689.887,0.277,689.819,0,689.816z"/>
				<polygon fill="#DF4040" points="0,791.194 323.558,978 330.085,978 0,787.429"/>
				<polygon fill="#DF4040" points="0,889.048 154.068,978 160.602,978 0,885.279"/>
			</g>
			<g opacity="0.25">
				<path fill="#40DF40" d="M593.24,350.556c0.912,0,1.635-0.723,1.635-1.613V-378l-3.251,0.003v726.939C591.623,349.833,592.349,350.556,593.24,350.556z"/>
				<path fill="#40DF40" d="M508.498,399.504c0.891,0,1.638-0.744,1.638-1.635v-775.866h-3.276v775.866C506.86,398.76,507.585,399.504,508.498,399.504z"/>
				<path fill="#40DF40" d="M423.737,448.431c0.91,0,1.635-0.726,1.635-1.635v-824.792h-3.254v824.792C422.118,447.705,422.847,448.431,423.737,448.431z"/>
				<path fill="#40DF40" d="M338.992,497.357c0.894,0,1.641-0.726,1.641-1.638v-873.716h-3.276v873.716C337.357,496.632,338.105,497.357,338.992,497.357z"/>
				<path fill="#40DF40" d="M254.254,546.281c0.891,0,1.616-0.723,1.616-1.635v-922.643h-3.251v922.643C252.619,545.558,253.341,546.281,254.254,546.281z"/>
				<path fill="#40DF40" d="M169.493,595.207c0.912,0,1.635-0.722,1.635-1.613v-971.591h-3.273v971.591C167.855,594.485,168.603,595.207,169.493,595.207z"/>
				<path fill="#40DF40" d="M84.751,644.156c0.891,0,1.616-0.744,1.616-1.635l0.019-1020.518h-3.27V642.521C83.116,643.412,83.839,644.156,84.751,644.156z"/>
				<path fill="#40DF40" d="M762.739,350.556c0.913,0,1.638-0.723,1.638-1.613V-378h-3.267l0.016,726.942C761.126,349.833,761.851,350.556,762.739,350.556z"/>
				<path fill="#40DF40" d="M847.502,399.504c0.891,0,1.617-0.744,1.617-1.635V-378h-3.255v775.869C845.864,398.76,846.593,399.504,847.502,399.504z"/>
				<path fill="#40DF40" d="M932.244,448.431c0.909,0,1.635-0.726,1.635-1.635V-378h-3.273v824.795C930.606,447.705,931.35,448.431,932.244,448.431z"/>
				<path fill="#40DF40" d="M1017.005,497.357c0.891,0,1.617-0.726,1.617-1.638V-378h-3.255v873.719C1015.367,496.632,1016.096,497.357,1017.005,497.357z"/>
				<path fill="#40DF40" d="M1101.747,546.281c0.909,0,1.638-0.723,1.638-1.635V-378h-3.273v922.646C1100.112,545.558,1100.856,546.281,1101.747,546.281z"/>
				<path fill="#40DF40" d="M1186.507,595.207c0.891,0,1.616-0.722,1.616-1.613V-378h-3.251v971.594C1184.872,594.485,1185.598,595.207,1186.507,595.207z"/>
				<path fill="#40DF40" d="M1271.249,644.156c0.891,0,1.635-0.744,1.635-1.635V-378h-3.273V642.521C1269.611,643.412,1270.336,644.156,1271.249,644.156z"/>
			</g>
		</g>
		<g opacity="0.25">
			<path fill="#4040DF" d="M677.19,298.583c-0.785,0.458-1.056,1.451-0.598,2.239c0.305,0.517,0.86,0.807,1.423,0.807c0.271,0,0.542-0.065,0.791-0.205l677.19-390.98v-3.777L677.19,298.583z"/>
			<path fill="#DF4040" d="M677.982,301.629c0.567,0,1.121-0.29,1.426-0.807c0.455-0.788,0.19-1.781-0.601-2.239L0-93.322v3.784l677.19,390.962C677.44,301.564,677.714,301.629,677.982,301.629z"/>
			<path fill="#40DF40" d="M679.638,299.994c0-0.891-0.748-1.616-1.638-1.616c-0.891,0-1.635,0.726-1.635,1.616V978h3.248L679.638,299.994z"/>
		</g>
		<g>
			<path fill="#4040DF" d="M680.819,298.365c-0.9-1.557-2.893-2.093-4.454-1.193L0,687.676v7.534l679.629-392.385C681.189,301.922,681.722,299.925,680.819,298.365z"/>
			<path fill="#DF4040" d="M679.623,297.175c-1.56-0.9-3.557-0.364-4.456,1.196c-0.9,1.56-0.368,3.557,1.193,4.454L1356,695.21v-7.534L679.623,297.175z"/>
			<path fill="#40DF40" d="M677.997,303.267c1.8,0,3.26-1.461,3.26-3.264L681.261-378h-6.525l-0.003,678.003C674.733,301.807,676.194,303.267,677.997,303.267z"/>
		</g>
		<circle cx="678.001" cy="300.003" r="3.736"/>
	</g>
</g>
</svg>
