<svg class="mobile-header preview" data-aos="dropshadow" version="1.1" xmlns="http://www.w3.org/2000/svg" xmlns:xlink="http://www.w3.org/1999/xlink"
  x="0px" y="0px" width="100%" height="720px" viewBox="0 0 1200 720" enable-background="new 0 0 1200 720" xml:space="preserve">
  <title>{{ include.title }} screenshots</title>
  <defs>
    <clipPath id="clip">
      <rect fill="none" width="1400" height="720"></rect>
    </clipPath>
  </defs>
  <g clip-path="url(#clip)">
    {% assign mobile1_img = include.slug | append: '-hero-mobile1.jpg' %}
    {% assign mobile2_img = include.slug | append: '-hero-mobile2.jpg' %}
    {% if site.data.webpack[mobile2_img] %}
      <g class="small" transform="translate(380 30)">
        <g opacity="0.05" class="shadow4">
          <rect fill="#000000" width="300" height="534" transform="rotate(-30 300 0) skewX(30)"></rect>
        </g>
        <g opacity="0.08" class="shadow3">
          <rect fill="#000000" width="300" height="534" transform="rotate(-30 300 0) skewX(30)"></rect>
        </g>
        <g opacity="0.11" class="shadow2">
          <rect fill="#000000" width="300" height="534" transform="rotate(-30 300 0) skewX(30)"></rect>
        </g>
        <g opacity="0.14" class="shadow1">
          <rect fill="#000000" width="300" height="534" transform="rotate(-30 300 0) skewX(30)"></rect>
        </g>
        <g transform="rotate(-30 300 0) skewX(30)" class="art">
          <image overflow="visible" width="300" height="534" xlink:href="{{ site.data.webpack[mobile2_img] }}"></image>
        </g>
      </g>
    {% endif %}
    {% if site.data.webpack[mobile1_img] %}
      <g class="big" transform="translate(80 200)">
        <g opacity="0.05" class="shadow4">
          <rect fill="#000000" width="300" height="534" transform="rotate(-30 300 0) skewX(30)"></rect>
        </g>
        <g opacity="0.08" class="shadow3">
          <rect fill="#000000" width="300" height="534" transform="rotate(-30 300 0) skewX(30)"></rect>
        </g>
        <g opacity="0.11" class="shadow2">
          <rect fill="#000000" width="300" height="534" transform="rotate(-30 300 0) skewX(30)"></rect>
        </g>
        <g opacity="0.14" class="shadow1">
          <rect fill="#000000" width="300" height="534" transform="rotate(-30 300 0) skewX(30)"></rect>
        </g>
        <g transform="rotate(-30 300 0) skewX(30)" class="art">
          <image overflow="visible" width="300" height="534" xlink:href="{{ site.data.webpack[mobile1_img] }}"></image>
        </g>
      </g>
    {% endif %}
  </g>
</svg>
