<svg class="preview" data-aos="dropshadow" version="1.1" xmlns="http://www.w3.org/2000/svg" xmlns:xlink="http://www.w3.org/1999/xlink"
  x="0px" y="0px" width="1200px" height="720px" viewBox="0 0 1200 720" enable-background="new 0 0 1200 720" xml:space="preserve">
  <defs>
    <clipPath id="clip">
      <rect fill="none" width="1200" height="720"></rect>
    </clipPath>
  </defs>
  <g clip-path="url(#clip)">
    {% assign desktop_img = include.project | append: '-hero-desktop.jpg' %}
    {% assign mobile_img = include.project | append: '-hero-mobile.jpg' %}
    {% if site.data.webpack[desktop_img] %}
      <g class="big" transform="translate(-45 75)">
        <g opacity="0.10" class="shadow4">
          <rect fill="#000000" width="450" height="729" transform="rotate(-30 450 0) skewX(30)"></rect>
        </g>
        <g opacity="0.15" class="shadow3">
          <rect fill="#000000" width="450" height="729" transform="rotate(-30 450 0) skewX(30)"></rect>
        </g>
        <g opacity="0.20" class="shadow2">
          <rect fill="#000000" width="450" height="729" transform="rotate(-30 450 0) skewX(30)"></rect>
        </g>
        <g opacity="0.25" class="shadow1">
          <rect fill="#000000" width="450" height="729" transform="rotate(-30 450 0) skewX(30)"></rect>
        </g>
        <g transform="rotate(-30 450 0) skewX(30)" class="art">
          <image overflow="visible" width="450" height="729" xlink:href="{{ site.data.webpack[desktop_img] }}"></image>
        </g>
      </g>
    {% endif %}
    {% if site.data.webpack[mobile_img] %}
      <g class="small" transform="translate(-10 437)">
        <g opacity="0.10" class="shadow4">
          <rect fill="#000000" width="187" height="334" transform="rotate(-30 185 0) skewX(30)"></rect>
        </g>
        <g opacity="0.15" class="shadow3">
          <rect fill="#000000" width="187" height="334" transform="rotate(-30 185 0) skewX(30)"></rect>
        </g>
        <g opacity="0.20" class="shadow2">
          <rect fill="#000000" width="187" height="334" transform="rotate(-30 185 0) skewX(30)"></rect>
        </g>
        <g opacity="0.25" class="shadow1">
          <rect fill="#000000" width="187" height="334" transform="rotate(-30 185 0) skewX(30)"></rect>
        </g>
        <g transform="rotate(-30 187 0) skewX(30)" class="art">
          <image overflow="visible" width="187" height="334" xlink:href="{{ site.data.webpack[mobile_img] }}"></image>
        </g>
      </g>
    {% endif %}
  </g>
</svg>
