<?xml version="1.0" encoding="utf-8"?>
<svg version="1.1" id="redant_logo" xmlns="http://www.w3.org/2000/svg" xmlns:xlink="http://www.w3.org/1999/xlink" x="0px" y="0px" viewBox="0 0 220 40" xml:space="preserve">
	<!-- width="220px" height="40px" -->
<g fill="#CE0005">
	<path id="redant" d="M66.855,19.248c0.948-1.26,1.421-2.823,1.421-4.694c0-1.381-0.267-2.52-0.801-3.423c-0.524-0.897-1.265-1.643-2.202-2.233c-0.842-0.524-1.784-0.888-2.833-1.091c-1.043-0.202-2.353-0.305-3.926-0.305h-7.278v25.922h3.458V23.119h4.852l8.694,10.306h4.476l-9.758-11.331C64.612,21.456,65.908,20.506,66.855,19.248z M58.202,20.216h-3.508v-9.749h4.082c0.933,0,1.743,0.065,2.429,0.202c0.695,0.131,1.29,0.364,1.789,0.7c0.604,0.394,1.043,0.875,1.305,1.452c0.263,0.569,0.394,1.23,0.394,1.966c0,0.973-0.126,1.774-0.378,2.405c-0.247,0.631-0.641,1.191-1.165,1.674c-0.569,0.524-1.265,0.877-2.081,1.068C60.252,20.12,59.295,20.216,58.202,20.216z M81.042,33.425h17.097v-3.088H84.495v-9.561h10.679v-3.09H84.495v-7.094h13.644V7.503H81.042 M124.89,9.559c-1.027-0.641-2.292-1.141-3.784-1.508c-1.492-0.367-3.504-0.549-6.039-0.549h-6.476v25.922h6.551c2.374,0,4.294-0.161,5.751-0.486c1.457-0.324,2.778-0.854,3.962-1.582c1.708-1.061,3.078-2.542,4.107-4.457c1.028-1.916,1.537-4.047,1.537-6.407c0-2.517-0.494-4.695-1.478-6.527C128.03,12.128,126.664,10.663,124.89,9.559z M125.949,25.488c-0.641,1.345-1.608,2.429-2.898,3.253c-1.039,0.663-2.179,1.116-3.408,1.358c-1.245,0.242-2.692,0.364-4.355,0.364h-3.241V10.467h3.241c1.603,0,2.984,0.113,4.139,0.34c1.149,0.225,2.238,0.628,3.255,1.207c1.406,0.802,2.465,1.896,3.176,3.292c0.71,1.391,1.063,3.105,1.063,5.136C126.921,22.458,126.599,24.142,125.949,25.488z M147.697,1.217h-0.026l-11.758,32.208h3.478l8.175-22.928l8.175,22.928h3.684L147.697,1.217z M185.904,28.673l-11.209-21.17h-5.336v25.922h3.211V10.24l12.286,23.185h4.255V7.503h-3.207V28.673z M198.026,7.503v3.087h9.258v22.835h3.458V10.591H220V7.503H198.026z"/>
	<path id="circle" d="M37.296,20.002c0,9.536-7.759,17.294-17.296,17.294S2.704,29.538,2.704,20.002c0-9.538,7.759-17.297,17.296-17.297S37.296,10.464,37.296,20.002z M20,0C8.972,0,0,8.973,0,20.002C0,31.029,8.972,40,20,40s20-8.971,20-19.998C40,8.973,31.028,0,20,0z"/>
	<path id="ant" d="M33.135,24.056l-0.553-2.075c0.058-0.083,0.086-0.182,0.041-0.279c-0.027-0.056-0.08-0.086-0.13-0.116l-1.43-3.304l-0.146,0.044c0.153-0.128,0.205-0.34,0.103-0.517c-0.022-0.038-0.054-0.066-0.085-0.095l-0.608-1.054l-0.31-1.205c0.033-0.096,0.049-0.198,0.021-0.303c-0.026-0.105-0.089-0.188-0.164-0.256l-0.021-0.083c-0.024-0.088-0.206-0.117-0.413-0.062c-0.014,0.004-0.025,0.009-0.039,0.014c-0.003,0.001-0.006,0-0.009,0c-0.008,0.002-0.013,0.008-0.021,0.01c-0.038,0.013-0.073,0.028-0.104,0.044l-0.16-0.277l0.274-0.457c0.019-0.006,0.041,0,0.054-0.022c0.037-0.065,0.025-0.172-0.01-0.276l0.02,0.042l0.32-0.366l-0.117-0.24l-0.317,0.368l0.04,0.083c-0.047-0.065-0.097-0.083-0.141-0.063c-0.005,0.001-0.015-0.01-0.019-0.005l-0.01,0.016c-0.005,0.005-0.013,0-0.017,0.007c-0.004,0.007-0.001,0.021-0.004,0.029l-0.297,0.494l-0.375-0.651c-0.005-0.053-0.01-0.107-0.033-0.159c-0.039-0.09-0.105-0.157-0.181-0.211l-0.072-0.125c-0.046-0.081-0.241-0.062-0.43,0.039c-0.004,0.002-0.006,0.004-0.01,0.006c-0.01,0.003-0.02,0.002-0.029,0.006c-0.004,0.002-0.006,0.005-0.01,0.007c-0.74-0.86-1.711-0.954-2.71-0.592c-1.119,0.403-1.916,1.245-1.871,2.687c-0.419-0.167-0.88-0.262-1.366-0.262c-0.21,0-0.414,0.023-0.614,0.056c-0.022-0.007-0.042-0.017-0.065-0.022c-0.154-0.03-0.288,0.007-0.338,0.08l-0.005-0.049l-1.067-0.137l0.027,0.211l0.756,0.097c-0.35,0.132-0.662,0.322-0.941,0.546l-1.726-2.684c-0.01-0.129-0.07-0.254-0.181-0.341c-0.21-0.17-0.514-0.134-0.682,0.074c-0.092,0.117-0.116,0.26-0.09,0.394l-1.839,2.973l-2.535-1.854c-0.061-0.134-0.172-0.248-0.322-0.311c-0.011-0.004-0.023-0.003-0.035-0.006c-0.003-0.002-0.005-0.004-0.008-0.006c-0.212-0.113-0.43-0.136-0.482-0.046l-0.083,0.145c-0.082,0.061-0.154,0.135-0.197,0.234c-0.024,0.055-0.029,0.112-0.035,0.168L8.6,19.159c-0.031,0.029-0.063,0.057-0.085,0.095c-0.116,0.197-0.06,0.432,0.107,0.58l-0.154-0.047l-1.606,3.698c-0.058,0.034-0.118,0.069-0.148,0.133c-0.049,0.108-0.016,0.219,0.048,0.314l-0.617,2.325l0.34,0.049l0.596-2.235c0.115-0.015,0.222-0.062,0.276-0.173c0.027-0.057,0.03-0.117,0.024-0.175l0.058,0.018l1.631-3.772l-0.054-0.016c0.146-0.02,0.283-0.097,0.36-0.232c0.044-0.076,0.055-0.159,0.052-0.24l2.548-4.416c0.074-0.005,0.146-0.021,0.213-0.05l0.434,0.317l-0.006,0.015c-0.085,0.056-0.16,0.129-0.202,0.23c-0.041,0.101-0.04,0.205-0.02,0.305l-1.833,4.41c-0.03,0.034-0.058,0.069-0.077,0.113c-0.073,0.182-0.011,0.378,0.136,0.492l-0.126-0.035l-1.23,3.252c-0.104,0.033-0.195,0.105-0.242,0.212c-0.057,0.141-0.022,0.296,0.075,0.402l-1.364,1.635l0.212,0.15l1.385-1.669c0.166,0.019,0.331-0.063,0.4-0.226c0.03-0.073,0.028-0.148,0.013-0.22l1.279-3.389l-0.088-0.024c0.146-0.019,0.279-0.106,0.339-0.253c0.031-0.074,0.032-0.15,0.021-0.224l1.758-4.22c0.007-0.002,0.014-0.002,0.02-0.004l1.234,1.083c-0.256,0.301-0.481,0.656-0.649,1.09c-0.07,0.18-0.128,0.361-0.179,0.541l-0.659,1.149c-0.099,0.015-0.19,0.068-0.247,0.161c-0.087,0.136-0.044,0.302,0.071,0.414l-0.934,1.674l0.21,0.095l0.94-1.682c0.12,0.003,0.237-0.031,0.305-0.139c0.033-0.054,0.025-0.113,0.028-0.171l0.06-0.104c-0.13,2.342,0.954,4.352,1.173,4.627c0.281,0.349,2.238,0.28,3.43-0.696c0.502-0.414,0.987-0.952,1.39-1.483l0.001,0.007c-0.039,0.093-0.062,0.195-0.041,0.302c0.018,0.09,0.063,0.165,0.117,0.231l0.022,0.954c0.004,0.066,0.093,0.117,0.218,0.141l0.708,3.641c-0.004,0.039-0.009,0.078-0.001,0.118c0.038,0.195,0.201,0.325,0.389,0.338l-0.104,0.034l0.402,1.244l0.416-0.134l-0.402-1.244l-0.009,0.003c0.112-0.096,0.177-0.244,0.146-0.4c-0.014-0.078-0.054-0.141-0.103-0.196l-0.871-4.492c0.099-0.119,0.152-0.275,0.118-0.437c-0.023-0.122-0.092-0.22-0.18-0.295l-0.026-1.076c0.101-0.212,0.172-0.401,0.187-0.535c0.007-0.068,0.042-0.17,0.088-0.291c0.448,0.196,0.943,0.315,1.474,0.315c1.465,0,2.703-0.842,3.185-2.016c0.202,0.176,0.411,0.325,0.625,0.439c0.025,0.263,0.108,0.569,0.248,0.884c0.31,0.712,0.783,1.171,1.061,1.03c0.275-0.141,0.248-0.828-0.061-1.537c-0.017-0.036-0.033-0.07-0.046-0.105c0.147-0.011,0.297-0.041,0.444-0.097c0.145-0.052,0.275-0.117,0.402-0.204c0.005,0.066,0.013,0.135,0.022,0.204c0.115,0.775,0.45,1.359,0.755,1.31c0.298-0.05,0.449-0.721,0.338-1.499c-0.059-0.396-0.178-0.746-0.319-0.981c0.316-0.655,0.434-1.511,0.364-2.429l0.195-0.128l0.62,1.073l0.817,3.176c-0.012,0.039-0.024,0.077-0.024,0.12c0,0.19,0.127,0.346,0.299,0.401l-0.077,0.01l0.787,3.542c-0.024,0.069-0.036,0.142-0.016,0.217c0.03,0.118,0.113,0.204,0.216,0.249l-0.288,1.249l0.299-0.01l0.286-1.238c0.173-0.071,0.27-0.254,0.226-0.441c-0.03-0.113-0.11-0.197-0.209-0.243l-0.757-3.394l-0.12,0.015c0.121-0.075,0.206-0.203,0.206-0.357c0-0.077-0.026-0.145-0.061-0.207l-0.035-0.138l0.799,1.846l0.069-0.021c-0.007,0.055-0.019,0.11,0.008,0.166c0.044,0.097,0.138,0.14,0.241,0.153l0.531,1.996L33.135,24.056z M15.693,16.35l1.712-2.769l1.606,2.498c-0.106-0.045-0.201-0.093-0.319-0.134C18.692,15.945,17.133,15.722,15.693,16.35z"/>
</g>
</svg>
